<svg width="76" height="53" viewBox="0 0 76 53" fill="none" xmlns="http://www.w3.org/2000/svg">
<g clip-path="url(#clip0_2019_2047)">
<path d="M67.3983 26.1252C71.8486 23.5732 74.6353 18.8298 74.6637 13.7259C74.6637 8.11732 71.3509 2.95573 66.204 0.605617C53.3367 -0.245036 43.6116 -0.158529 39.8154 0.605617C36.7159 1.21117 35.5927 2.66737 35.3367 3.05665C34.4836 4.311 34.3841 5.65186 34.3699 6.24299C34.2277 9.64561 34.1851 23.2272 34.3699 41.7109C37.8675 41.0765 41.3794 40.4421 44.8912 39.8077V30.1478H62.4647C65.6637 30.8687 68.0239 33.5216 68.3367 36.6358C68.678 40.197 66.2751 43.1238 62.6069 44.061H38.5927C35.9765 44.0322 33.9149 46.2525 34.0002 48.7036C34.1282 52.1638 38.4363 53.0001 38.4505 53.0001H65.8201C71.5926 51.2843 75.6874 46.0507 75.986 39.9808C76.2846 34.0262 72.8438 28.4609 67.3983 26.1252ZM60.986 21.4538H44.8912V8.82379H60.8581C63.7585 9.47259 65.9054 11.8804 66.1898 14.7063C66.5026 17.9503 64.313 20.6176 60.986 21.4538Z" fill="#306EFD"/>
</g>
<g clip-path="url(#clip1_2019_2047)">
<path d="M33.3983 26.1252C37.8486 23.5732 40.6353 18.8298 40.6637 13.7259C40.6637 8.11732 37.3509 2.95573 32.204 0.605617C19.3367 -0.245036 9.61161 -0.158529 5.8154 0.605617C2.71588 1.21117 1.59265 2.66737 1.33673 3.05665C0.483648 4.311 0.384122 5.65186 0.369904 6.24299C0.227724 9.64561 0.18507 23.2272 0.369904 41.7109C3.86753 41.0765 7.37938 40.4421 10.8912 39.8077V30.1478H28.4647C31.6637 30.8687 34.0239 33.5216 34.3367 36.6358C34.678 40.197 32.2751 43.1238 28.6069 44.061H4.59265C1.97654 44.0322 -0.0850725 46.2525 0.000235585 48.7036C0.128198 52.1638 4.43625 53.0001 4.45047 53.0001H31.8201C37.5926 51.2843 41.6874 46.0507 41.986 39.9808C42.2846 34.0262 38.8438 28.4609 33.3983 26.1252ZM26.986 21.4538H10.8912V8.82379H26.8581C29.7585 9.47259 31.9054 11.8804 32.1898 14.7063C32.5026 17.9503 30.313 20.6176 26.986 21.4538Z" fill="#222A32"/>
</g>
<defs>
<clipPath id="clip0_2019_2047">
<rect width="42" height="53" fill="white" transform="translate(34)"/>
</clipPath>
<clipPath id="clip1_2019_2047">
<rect width="42" height="53" fill="white"/>
</clipPath>
</defs>
</svg>
