<svg width="553" height="679" viewBox="0 0 553 679" fill="none" xmlns="http://www.w3.org/2000/svg">
<g clip-path="url(#clip0_2004_2376)">
<path d="M212.1 92.01C209.46 91.18 206.75 90.47 205.15 87.59C203.49 89.25 201.97 90.77 200.28 92.46C200.73 92.91 201.35 93.48 201.9 94.09C204.9 97.41 204.61 102.48 201.27 105.35C197.87 108.27 192.92 107.88 190.03 104.46C189.56 103.9 189.12 103.33 188.66 102.76C186.7 104.72 184.87 106.55 182.93 108.49C186.38 110.55 188.44 113.62 187.04 118.03C186.05 121.15 183.71 122.92 180.46 123.16C176.54 123.45 174 121.39 172.3 117.38C170.96 120.72 169.06 123.1 165.36 124.07C166.53 124.84 167.31 125.29 168.03 125.84C171.48 128.46 172.1 133.06 169.48 136.48C167.07 139.63 162.14 140.25 159 137.56C157.77 136.51 157.01 134.92 155.89 133.38C155.61 134.03 155.37 134.61 155.11 135.17C154.04 137.44 152.34 139 149.94 139.81C149.13 140.08 148.34 140.4 147.54 140.7L147.26 140.69C144.68 139.66 142 138.82 140.44 136.43C138.81 138.06 137.45 139.42 136.26 140.61C137.26 142.29 138.17 143.8 139.04 145.33C139.4 145.96 139.69 146.64 140.01 147.29C140.01 147.41 140.01 147.51 140.01 147.59C139.73 148.39 139.4 149.17 139.17 149.98C138.3 152.96 136.41 154.93 133.45 155.87C133.13 155.97 132.83 156.12 132.38 156.31C137.37 159.03 139.05 161.64 138.35 165.39C137.78 168.44 135.26 170.89 132.18 171.38C128.64 171.94 126.07 170.33 123.54 165.8C122.27 169.02 120.29 171.4 116.63 172.59C120.73 174.56 122.97 177.25 122.32 181.54C121.87 184.51 119.5 187.03 116.58 187.63C112.47 188.47 109.6 186.66 107.75 183.29C105.81 185.23 103.93 187.11 102.06 188.98C107.03 193 108 197.79 104.6 201.63C101.09 205.6 96.18 205.21 91.59 200.62L87.1 205.11C87.99 206.19 89.01 207.18 89.72 208.36C90.39 209.48 90.73 210.8 91.22 212.03C91.22 212.42 91.24 212.81 91.25 213.2C90.99 213.91 90.73 214.62 90.48 215.34C89.5 218.16 87.46 219.89 84.39 221.03C85.27 221.59 85.93 222.01 86.58 222.44C90.42 224.94 91.22 230 88.36 233.67C85.69 237.1 80.47 237.44 77.2 234.4C76.59 233.83 76.02 233.22 75.47 232.67C73.93 234.36 72.48 235.95 71.02 237.56C76.55 244.65 76.07 248.8 68.87 253.43C69.32 253.8 69.68 254.18 70.11 254.46C74.27 257.19 75.27 262.35 72.31 266.08C69.44 269.7 63.85 270.07 60.7 266.72C60.38 266.38 60.04 266.06 59.6 265.62C58.37 267.07 57.23 268.4 56.1 269.73C57.13 271.27 58.11 272.75 59.23 274.43C59.82 273.78 60.4 273.11 61.02 272.47C63.88 269.54 68.44 269.45 71.26 272.26C74.06 275.05 74.03 279.79 71.19 282.55C68.32 285.34 63.79 285.23 60.95 282.28C60.37 281.67 59.84 281.01 59.21 280.27C58.55 281.35 58.05 282.38 57.35 283.26C56.65 284.15 55.77 284.88 54.9 285.75C55.75 286.82 56.84 287.89 57.55 289.17C58.27 290.47 58.63 291.98 59.14 293.4C59.15 293.51 59.15 293.63 59.14 293.74C58.76 294.91 58.6 296.23 57.95 297.23C56.83 298.93 55.41 300.43 54.1 302.03C60.18 307.82 59.95 313.25 53.33 317.67C54.73 319.36 56.38 320.92 57.47 322.8C58.6 324.76 58.36 327.04 57.49 329.17C56.57 331.42 54.81 332.83 52.28 333.99C55.62 335.79 58 338.1 58.03 341.92C58.06 345.8 55.99 348.34 52.24 350.09C55.59 351.86 57.97 354.18 58.05 357.98C58.13 361.79 56.21 364.45 52.46 366.23C55.95 368.04 58.09 370.45 58.2 374.13C58.31 377.7 56.6 380.31 53.26 382.25C56 384.23 58.31 386.43 58.51 389.97C58.71 393.52 57.15 396.22 54.39 398.14C56.02 400.2 57.58 402.17 59.23 404.25C60.55 401.86 62.55 399.95 65.72 399.84C67.74 399.76 69.45 400.49 70.87 401.9C73.75 404.78 73.57 409.36 70.48 412.06C66.95 415.15 62.93 414.19 59.01 409.37C57.87 411.05 56.72 412.75 55.52 414.51C56.66 415.88 57.85 417.33 59.15 418.9C59.69 418.42 60.23 417.92 60.78 417.44C63.16 415.38 65.87 414.81 68.76 416.01C71.63 417.2 73.28 419.46 73.44 422.61C73.6 425.77 72.07 428.08 69.41 429.68C68.78 430.06 68.06 430.27 66.91 430.76C70.68 432.03 73.33 434.02 73.92 437.78C74.52 441.59 72.87 444.43 69.79 446.43C71.57 448.43 73.29 450.37 75.14 452.46C75.39 452.12 75.79 451.52 76.23 450.96C78.91 447.54 83.69 447.03 86.85 449.83C90.12 452.72 90.15 457.76 86.93 460.72C83.8 463.59 78.97 463.19 76.29 459.83C75.83 459.26 75.44 458.63 74.97 457.97C73.84 459.58 72.83 461.04 71.64 462.73C72.67 463.92 73.82 465.24 75.1 466.72C77.38 464.6 79.91 463.01 83.22 463.52C85.3 463.84 86.94 464.89 88.26 466.49C91.32 470.19 90.56 474.15 85.79 479.02L91.14 484.37C93.19 481.16 96.12 479.31 100.15 480.39C103.16 481.2 105.07 483.3 105.57 486.39C106.26 490.71 103.85 493.34 99.93 495.3C102.47 496.46 104.61 497.63 105.67 500.03C106.09 500.98 106.56 501.92 107 502.86C106.97 503.63 106.94 504.39 106.92 505.16C105.71 507.16 104.49 509.15 103.16 511.33L107.26 515.43C109.38 513.14 111.87 511.53 115.19 511.91C117.27 512.15 118.97 513.1 120.35 514.66C123.62 518.36 122.96 522.74 118.4 527.21C120.01 528.82 121.62 530.43 123.23 532.04C127.7 527.35 132.57 526.83 136.22 530.7C139.78 534.47 138.99 539.17 134.03 543.49C135.71 545.17 137.39 546.85 139.07 548.53C143.42 543.9 148.17 543.18 151.88 546.62C155.57 550.04 155.07 554.56 150.45 559.75C152.02 561.32 153.58 562.88 155.15 564.45C160.05 559.86 164.48 559.28 168.12 562.75C171.76 566.21 171.35 570.65 166.96 575.71C168.41 577.16 169.86 578.61 171.56 580.31C173.14 577.9 175.66 576.85 178.3 576C178.68 575.98 179.06 575.97 179.44 575.95C179.86 576.17 180.25 576.49 180.69 576.61C184.01 577.52 185.9 579.87 187.17 583.45C188.96 579.06 191.74 576.69 196.29 577.41C199.34 577.9 201.63 580.22 202.18 583.28C202.9 587.32 200.85 589.97 197.43 591.96C198.7 592.86 199.92 593.56 200.94 594.5C201.88 595.37 202.6 596.49 203.42 597.5C208.13 592.46 212.36 591.62 216.24 594.89C220.01 598.07 219.73 602.59 215.43 607.9C216.88 609.2 218.32 610.49 219.65 611.68C221.65 610.45 223.56 609.28 225.57 608.05C225.02 607.76 224.3 607.4 223.6 607C220.76 605.36 219.44 602.05 220.35 598.91C221.22 595.91 224.05 593.77 227.17 593.75C230.39 593.73 233.3 595.97 234.09 599.1C234.87 602.16 233.55 605.35 230.81 606.95C230.16 607.33 229.46 607.63 228.4 608.15C231.71 609.29 234.35 610.92 235.48 614.3C239.95 608.78 244.33 607.71 248.29 610.93C252.2 614.1 252.11 618.62 247.98 623.78C249.29 624.94 250.6 626.1 251.93 627.27C253.55 626.2 255.17 625.12 256.8 624.04C251.85 619.77 251.01 615.72 254.31 612.2C257.21 609.11 261.81 609.09 264.7 612.17C268.01 615.68 267.15 619.79 262.36 623.88C264.25 625.45 266.16 627.05 268.33 628.86C270.16 626.4 272.76 624.48 276.43 624.81C280.14 625.14 282.29 627.56 284.06 630.94C285.58 627.95 287.48 625.81 290.68 625.36C292.74 625.07 294.65 625.48 296.36 626.72C300.51 629.72 300.73 634.27 296.9 639.51L299.05 641.66C297.82 641.56 297.05 641.54 296.29 641.43C294.31 641.15 292.35 640.72 290.36 640.54C287.62 640.28 285.8 638.89 284.68 636.45C284.56 636.19 284.39 635.96 284.22 635.73C284.17 635.67 284.06 635.66 283.97 635.63C281.81 638.98 281.82 638.92 277.7 638.01C264.68 635.13 251.94 631.29 239.4 626.78C238.61 626.5 237.84 626.14 236.85 625.73C237.56 625.02 238.12 624.46 238.73 623.85C237.68 622.51 236.71 621.28 235.52 619.76C235.01 621.51 232.97 622.37 234 624.97C226.81 621.78 219.93 618.83 213.15 615.71C200.18 609.74 188.01 602.35 176 594.69C174.74 593.89 173.26 593.21 173.11 591.28C173.06 590.71 172.12 590.21 171.43 589.52C170.43 590.61 169.55 590.06 168.57 589.3C162.88 584.89 157.13 580.55 151.45 576.13C145.29 571.35 139.87 565.74 134.08 560.55C128.41 555.45 123.33 549.81 118.28 544.18C109.61 534.52 101.53 524.33 94.42 513.43C91.29 508.63 88.11 503.87 85.16 498.96C82.18 494 79.46 488.88 76.65 483.81C76.2 483 75.88 482.11 75.46 481.18C76.45 480.41 77.32 479.74 78.3 478.98C77.17 478.02 76.19 477.18 75.17 476.32C74.72 476.72 74.32 477.09 73.76 477.59C73.45 477.16 73.12 476.82 72.94 476.42C70.52 471.05 68.06 465.7 65.73 460.29C64.23 456.8 62.85 453.25 61.57 449.68C61.25 448.78 61.51 447.66 61.51 446.29C59.09 445.04 58.77 442.07 57.94 439.54C53.59 426.14 50.06 412.52 47.61 398.63C46.85 394.32 46.17 390 45.54 385.66C45.41 384.78 45.68 383.84 45.77 382.93C45.8 382.68 45.98 382.36 45.89 382.19C43.82 378.45 44.69 374.22 43.87 370.27C43.63 369.12 44.06 368.23 45.07 367.6C45.62 367.25 46.16 366.87 46.68 366.52C46.6 366.3 46.59 366.03 46.48 365.98C43.95 364.9 43.09 362.91 43.22 360.27C43.29 358.85 43.24 357.4 43.01 356C42.64 353.75 43.76 352.4 45.48 351.31C45.95 351.01 46.44 350.74 46.9 350.47C46.84 350.21 46.86 349.95 46.76 349.89C44.16 348.19 42.8633 345.79 42.87 342.69C42.87 342.5 42.87 342.31 42.87 342.12C43.15 335.93 42.63 337.51 47.04 334.09C46.75 333.85 46.53 333.57 46.23 333.43C43.86 332.32 42.82 330.62 43.41 327.92C43.71 326.54 43.69 325.08 43.68 323.66C43.68 321.26 43.91 319.03 47.59 318.17C44.53 317.02 44.36 315.35 44.6 313.14C46.52 295.39 50.03 277.96 54.98 260.81C55.6 258.66 56.31 256.53 57.1 253.99C58.09 255.17 58.74 255.94 59.42 256.75C60.75 255.72 62.08 254.69 63.64 253.48C62.42 252.72 61.21 251.97 59.92 251.17L57.99 253.1C57.88 249.11 66.35 227.63 73.65 212.92C80.04 200.05 87.17 187.62 95.29 175.76C103.45 163.85 112.57 152.69 122.26 141.7C122.87 142.23 123.35 142.63 123.82 143.03C123.91 143.03 124.02 143.05 124.07 143C124.81 142.28 125.53 141.55 126.34 140.74C125.89 140.23 125.48 139.76 125.01 139.23C129.19 134.37 133.31 129.53 138.47 125.65C139.13 126.21 139.62 126.62 140.21 127.12C140.95 126.38 141.67 125.66 142.53 124.8C142.13 124.28 141.7 123.72 141.31 123.22C141.45 122.94 141.49 122.73 141.62 122.62C145.77 118.98 149.9 115.34 154.09 111.75C154.68 111.24 155.53 111.04 156.24 110.66C156.65 110.44 157.1 110.23 157.39 109.89C161.22 105.46 166.16 102.4 170.85 99.03C179.37 92.91 188.27 87.4 197.38 82.23C199.85 80.83 202.53 79.82 205.05 78.51C208.08 76.94 210.98 75.1 214.05 73.62C225.64 68.01 237.54 63.15 249.8 59.22C250.34 59.05 250.88 58.92 251.94 58.62C251.23 59.46 250.81 59.95 250.4 60.44C251.27 61.73 252.11 62.97 253.07 64.4C254.14 63.02 255.16 61.71 256.26 60.29C255.57 59.6 254.86 58.89 253.86 57.89C256.37 57.09 258.58 56.31 260.84 55.67C273.23 52.16 285.77 49.31 298.51 47.43C299.38 47.3 300.31 47.52 301.21 47.58C301.45 47.59 301.74 47.69 301.93 47.58C305.85 45.54 310.2 46.04 314.36 45.45C314.95 45.37 315.91 46.12 316.3 46.74C318.41 50.05 317.31 54.96 314.07 57.19C310.47 59.67 305.55 59 303.03 55.66C302.58 55.06 302.22 54.38 301.6 53.4C299.87 56.58 297.64 58.9 294.03 59.23C290.47 59.56 287.79 58 285.78 55.3C283.8 56.91 281.86 58.49 279.93 60.05C284.71 64.44 285.42 68.52 281.9 71.97C278.99 74.82 274.48 74.68 271.71 71.65C268.53 68.17 269.41 64.04 274.22 60C272.62 58.9 271.03 57.81 269.32 56.64C268.03 57.77 266.7 58.94 265.38 60.1C269.58 65.7 269.47 70.2 265.16 73.32C261.2 76.19 256.54 74.73 253.08 69.33C251.47 72.45 249.37 74.92 245.77 75.39C242.21 75.85 239.49 74.35 237.28 71.55C235.58 73.06 233.91 74.55 232.06 76.19C234.59 78.14 236.44 80.64 235.95 84.22C235.65 86.42 234.54 88.16 232.75 89.44C228.78 92.29 224.28 90.86 220.84 85.61C219.66 87.04 218.69 88.71 217.28 89.78C215.89 90.83 214.04 91.27 212.4 91.98C212.27 91.99 212.15 92 212.02 91.98L212.1 92.01ZM123.87 152.85L119.99 156.73C121.2 158.5 122.43 160.3 123.61 162.03C124.45 160.84 125.12 159.55 126.11 158.59C127.05 157.68 128.34 157.13 129.32 156.52C127.4 155.23 125.62 154.04 123.87 152.86V152.85ZM156.24 130.55C157.02 127.6 159.01 125.7 161.74 124.46C159.74 123.14 158.04 122.03 156.31 120.89C155.01 122.19 153.75 123.45 152.6 124.6C153.82 126.6 154.97 128.48 156.23 130.55H156.24ZM187.07 586.78C186.1 588.38 185 590.19 183.95 591.91C185.22 593.05 186.4 594.11 187.62 595.2C189.16 594.12 190.66 593.07 191.84 592.25C190.18 590.34 188.61 588.54 187.07 586.78ZM172.6 105.14L169.13 108.61C170.16 110.16 171.23 111.76 172.15 113.15L177.03 108.27C175.62 107.28 174.26 106.31 172.6 105.14ZM107.47 177.46L112.41 172.52C111 171.62 109.39 170.59 107.82 169.58C106.63 170.77 105.51 171.89 104.44 172.96C105.47 174.49 106.41 175.88 107.47 177.46ZM95.91 495.4C94.22 493.97 92.5 492.51 90.74 491.02C89.91 492.2 89 493.48 88.04 494.84C89.13 496.05 90.18 497.2 91.2 498.32C92.9 497.27 94.47 496.29 95.92 495.4H95.91ZM220.71 80.93C222.13 79.23 223.43 77.65 224.8 76C223.68 75.18 222.49 74.32 221.21 73.38C220.05 74.42 218.95 75.41 217.87 76.39C218.87 77.98 219.8 79.47 220.71 80.92V80.93ZM59.17 433.81C61.07 432.7 62.8 431.7 64.3 430.83C62.57 429.68 60.8 428.5 58.92 427.24C58.17 428.31 57.37 429.44 56.52 430.65C57.43 431.73 58.27 432.73 59.18 433.81H59.17ZM75.24 225.1C76.96 223.66 78.5 222.38 80.08 221.06C78.5 220.1 77.07 219.24 75.59 218.35C74.54 219.52 73.62 220.55 72.72 221.55C73.62 222.81 74.38 223.89 75.24 225.1ZM91.9 186.43C90.85 187.48 90 188.33 89.1 189.23C89.93 190.39 90.68 191.43 91.54 192.62C92.9 191.26 94.12 190.04 95.36 188.8C94.15 187.97 93.08 187.23 91.91 186.42L91.9 186.43ZM188.91 89.87C187.85 90.93 187 91.78 186.12 92.66C186.95 93.89 187.71 95.03 188.54 96.25C189.75 94.86 190.83 93.61 192.05 92.21C191.02 91.44 190.07 90.73 188.92 89.86L188.91 89.87ZM121.06 542.91C122.1 543.95 122.89 544.74 123.75 545.6C124.81 544.89 125.78 544.24 126.73 543.6C125.43 542.3 124.33 541.2 123.07 539.94C122.35 541.01 121.73 541.93 121.07 542.91H121.06ZM201.23 607.51C202.3 608.42 203.14 609.14 204.01 609.88C204.98 609.22 205.81 608.65 206.74 608.01C205.59 606.69 204.52 605.46 203.36 604.13C202.63 605.29 201.99 606.31 201.24 607.5L201.23 607.51ZM139.72 561.86C140.77 561.09 141.57 560.49 142.41 559.87L138.84 556.3C138.16 557.36 137.57 558.28 137.01 559.15L139.71 561.85L139.72 561.86ZM107.16 524.34C106.45 525.26 105.8 526.09 105.11 526.98C106 527.87 106.71 528.58 107.54 529.41C108.47 528.72 109.32 528.07 110.22 527.4C109.18 526.36 108.31 525.49 107.16 524.34ZM155.57 577.7C156.49 577.1 157.34 576.55 158.29 575.93C157.13 574.77 156.11 573.75 154.97 572.61C154.33 573.65 153.8 574.51 153.26 575.39C154.08 576.21 154.78 576.91 155.57 577.7Z" fill="white"/>
<path d="M591.08 486.67C591.57 482.79 593.74 480.25 597.66 478.77C596.81 478.21 596.15 477.78 595.5 477.34C591.67 474.74 590.94 469.67 593.89 466.1C596.69 462.72 601.8 462.5 605.06 465.62C605.6 466.14 606.12 466.67 606.61 467.16L611.35 462.42C605.1 456.26 606.75 449.66 614.02 446.21C611.03 444.81 608.8 442.9 608.4 439.56C608.14 437.36 608.76 435.41 610.18 433.72C613.36 429.92 618.14 430.21 622.68 434.57C624.02 433.06 625.36 431.55 626.47 430.31C625.28 427.98 624.13 425.73 622.99 423.49C622.99 422.77 622.99 422.05 623 421.34C624 418.32 625.35 415.55 628.89 414.1C628.03 413.42 627.53 413.04 627.05 412.64C622.17 408.6 623.28 401.17 629.15 398.66C629.84 398.36 630.53 398.07 631.23 397.77C631.77 397.76 632.3 397.75 632.84 397.73C634.06 398.24 635.34 398.65 636.5 399.28C638.26 400.25 638.58 400.84 638.12 402.74C636.04 411.43 634.11 420.17 631.7 428.78C628.79 439.14 625.07 449.26 620.92 459.2C616.81 469.05 612.23 478.68 607.07 488.02C599.05 502.54 590.09 516.44 579.62 529.34C575.19 534.8 570.7 540.24 565.94 545.41C559.94 551.92 553.88 558.41 547.4 564.44C538.42 572.79 528.95 580.57 518.98 587.77C508.7 595.2 498.03 602 486.93 608.09C473.55 615.43 459.67 621.68 445.31 626.89C435.99 630.27 426.54 633.23 416.94 635.66C411.24 637.1 405.48 638.3 399.62 639.64C398.61 638.01 397.73 636.58 396.65 634.84C396.18 637.03 393.91 638.07 393.9 640.64C391.85 640.94 389.71 641.27 387.55 641.57C385.51 641.86 383.47 642.13 381.22 641.93C382.13 641.14 383.03 640.36 384.05 639.48C382 637.18 380.5 634.61 381.26 631.29C381.76 629.12 383.02 627.5 384.84 626.31C388.93 623.65 393.21 625.26 396.77 630.76C400.39 623.33 407.6 622.6 412.74 629.01C413.87 627.88 414.85 626.56 416.14 625.71C417.46 624.85 419.08 624.45 420.57 623.85C421.05 623.85 421.53 623.84 422.01 623.83C424.61 624.3 426.81 625.53 428.54 627.62C430.28 626.16 431.84 624.84 433.54 623.4C430.44 620.9 428.92 617.83 430.44 613.91C431.58 610.97 433.88 609.33 437 609.15C441.05 608.92 443.53 611.16 445.11 615.12C446.58 611.64 448.55 609.07 452.17 608.42C455.84 607.76 458.61 609.38 460.87 612.16C462.72 610.53 464.45 609 466.31 607.36C463.1 604.96 461.3 601.91 462.8 597.79C463.83 594.94 466 593.27 469 592.96C473.14 592.53 475.78 594.7 477.46 598.75C479.16 594.52 481.72 592.01 486.08 591.94H485.99C489.1 591.8 491.32 593.53 493.38 595.64L497.82 591.2C497.47 590.81 497.01 590.27 496.52 589.74C493.38 586.34 493.57 581.12 496.94 578.23C500.49 575.19 505.66 575.7 508.61 579.39C508.89 579.75 509.15 580.13 509.48 580.57L514.97 575.08C511.73 572.99 509.91 569.96 511.1 565.83C511.96 562.84 514.1 561.01 517.18 560.43C520.53 559.8 523.06 561.2 525.9 565.14C526.75 564 527.47 562.77 528.45 561.8C529.45 560.82 530.71 560.1 531.98 559.18C531.33 558.7 530.64 558.25 530 557.73C527.47 555.66 526.55 553.01 527.35 549.84C528.1 546.86 530.56 544.69 533.62 544.32C536.86 543.93 539.39 545.17 541.15 547.91C541.5 548.44 541.73 549.05 542.22 550.02C543.51 546.77 545.52 544.63 548.72 543.29C544.97 541.21 542.87 538.51 543.61 534.36C544.14 531.39 546.54 529 549.48 528.38C552.88 527.66 555.3 528.89 558.5 532.99C559.3 531.83 559.96 530.56 560.91 529.58C561.82 528.64 563.04 528 564.28 527.12C563.84 526.76 563.38 526.34 562.88 525.99C560.23 524.08 559.12 521.47 559.66 518.28C560.18 515.2 562.03 513.1 565.06 512.22C568.07 511.35 570.71 512.07 572.87 514.37C573.38 514.92 573.86 515.5 574.34 516.06C576.08 514.32 577.78 512.62 579.59 510.81C579.1 510.32 578.59 509.8 578.07 509.29C574.74 506.04 574.52 501.3 577.56 498.04C580.63 494.73 585.33 494.47 588.86 497.43C589.37 497.85 589.8 498.36 590.37 498.93C591.81 497.49 593.2 496.1 594.73 494.57C592.98 492.5 591.05 490.48 591.13 487.5C591.11 487.22 591.09 486.94 591.07 486.66L591.08 486.67ZM541.62 562.19C542.76 561.05 543.87 559.94 544.96 558.85C544.01 557.25 543.11 555.73 542.29 554.36C540.65 556 538.98 557.67 537.34 559.31C538.72 560.24 540.04 561.12 541.63 562.18L541.62 562.19ZM553.8 543.41C555.24 544.36 556.64 545.29 558.03 546.21C559.17 545.07 560.27 543.97 561.35 542.89C560.37 541.4 559.46 540.01 558.57 538.65C556.99 540.23 555.44 541.78 553.81 543.41H553.8ZM477.51 602.7C476.16 604.34 474.79 605.98 473.42 607.64C474.58 608.47 475.8 609.34 477.11 610.27C478.25 609.23 479.34 608.23 480.38 607.28C479.35 605.64 478.42 604.15 477.51 602.7ZM617.9 446.35C619.45 447.25 621 448.15 622.63 449.1C623.56 448 624.39 447.03 625.28 445.99C624.37 444.75 623.58 443.67 622.89 442.74C621.09 444.05 619.52 445.18 617.91 446.36L617.9 446.35ZM574.55 522.87C573.05 524.37 571.69 525.73 570.25 527.17C571.48 528.01 572.69 528.84 573.92 529.68L577.06 526.54C576.22 525.32 575.48 524.24 574.54 522.87H574.55ZM526.06 570.97C524.57 572.46 523.14 573.89 521.64 575.39C523.09 576.33 524.4 577.18 525.63 577.98C526.74 576.87 527.72 575.89 528.67 574.94C527.73 573.5 526.87 572.19 526.06 570.97ZM602.04 478.73C603.52 479.63 604.88 480.45 606.27 481.3C607.26 480.31 608.25 479.32 609.32 478.25C608.47 477.02 607.7 475.88 606.91 474.74C605.26 476.09 603.75 477.33 602.04 478.73ZM447.93 623.34C446.96 621.72 446.08 620.23 445.2 618.76C443.92 620.45 442.71 622.03 441.45 623.69C442.62 624.47 443.76 625.23 444.87 625.97C445.94 625.05 446.87 624.26 447.94 623.35L447.93 623.34ZM509.13 593.2C510.14 592.19 510.92 591.41 511.72 590.61C510.98 589.59 510.35 588.72 509.66 587.77C508.5 589.05 507.49 590.15 506.39 591.36C507.37 592.02 508.21 592.58 509.13 593.19V593.2ZM590.57 507.71C589.24 508.91 588.22 509.84 586.99 510.95C588.17 511.67 589.17 512.27 590.08 512.83C590.98 511.93 591.7 511.21 592.56 510.35C591.9 509.47 591.3 508.68 590.57 507.72V507.71Z" fill="white"/>
<path d="M360.44 639.69C361.71 640.64 362.98 641.59 364.39 642.64C365.71 641.67 367.07 640.68 368.6 639.57C368 638.9 367.45 638.3 366.93 637.68C364.46 634.69 364.73 630.24 367.53 627.57C370.39 624.84 375.06 624.83 377.91 627.55C380.71 630.22 380.96 634.67 378.47 637.66C377.99 638.24 377.41 638.73 376.74 639.41C377.92 640.35 378.99 641.21 380.06 642.06C353.68 646.01 327.45 645.77 300.63 642.13C301.93 641.05 302.82 640.31 303.7 639.58C299.81 634.9 299.54 630.76 302.86 627.65C305.75 624.95 310.42 624.98 313.24 627.72C316.44 630.83 316.16 635 312.28 639.54C313.57 640.57 314.86 641.59 316.26 642.71C317.61 641.72 318.94 640.74 320.28 639.76C316.17 634.83 315.89 630.86 319.36 627.72C322.21 625.14 326.44 625.22 329.19 627.89C332.46 631.06 332.1 634.93 328.06 639.71C329.44 640.79 330.83 641.86 332.25 642.97C333.72 641.87 335.15 640.81 336.75 639.62C334.53 637.78 332.97 635.61 333.18 632.59C333.32 630.57 334.22 628.96 335.72 627.64C338.6 625.12 342.8 625.32 345.5 628.12C348.64 631.37 348.15 635.34 344.02 639.68C345.43 640.74 346.84 641.8 348.36 642.95C349.74 641.9 351.14 640.83 352.55 639.75C348.54 634.43 348.24 630.84 351.57 627.74C354.38 625.13 358.62 625.11 361.43 627.69C364.8 630.8 364.5 634.54 360.42 639.72L360.44 639.69Z" fill="white"/>
<path d="M140.01 147.6C140.01 147.52 140.01 147.42 140.01 147.3C140.98 143.51 143.14 141.02 147.26 140.69C147.26 140.69 147.54 140.69 147.54 140.7C152.64 141.37 155.53 144.87 154.7 149.36C154.11 152.56 151.48 154.99 148.26 155.35C145.04 155.7 141.92 153.93 140.72 150.9C140.31 149.87 140.24 148.71 140.01 147.6Z" fill="white"/>
<path d="M330.85 56.0699C328.32 58.5299 324.35 58.8899 321.36 56.9299C318.45 55.0199 317.25 51.0899 318.68 47.8299C319.33 46.3499 320.1 44.6399 322.04 44.7599C325.11 44.9499 328.51 42.8399 331.23 45.7299C333.95 48.6099 333.73 53.2599 330.86 56.0599L330.85 56.0699Z" fill="white"/>
<path d="M106.93 505.17C106.96 504.4 106.99 503.64 107.01 502.87C107.63 501.6 108.03 500.15 108.9 499.09C111.55 495.88 116.35 495.7 119.31 498.54C122.28 501.37 122.28 506.16 119.33 509.02C116.36 511.89 111.6 511.75 108.91 508.59C108.07 507.6 107.58 506.32 106.93 505.17Z" fill="white"/>
<path d="M179.43 575.97C179.05 575.99 178.67 576 178.29 576.02C177.48 575.76 176.64 575.57 175.86 575.24C172.62 573.84 170.9 570.48 171.65 567.08C172.36 563.85 175.34 561.43 178.66 561.41C181.96 561.38 184.99 563.77 185.72 566.97C186.49 570.36 184.8 573.75 181.58 575.2C180.89 575.51 180.15 575.72 179.43 575.98V575.97Z" fill="white"/>
<path d="M91.24 213.21C91.24 212.82 91.22 212.43 91.21 212.04C91.53 211.25 91.81 210.45 92.16 209.68C93.57 206.63 96.93 204.97 100.17 205.68C103.45 206.41 105.75 209.28 105.73 212.65C105.71 216.01 103.39 218.89 100.1 219.6C96.85 220.31 93.51 218.64 92.13 215.58C91.78 214.81 91.53 214 91.23 213.2L91.24 213.21Z" fill="white"/>
<path d="M212.1 92.0099C212.23 92.0199 212.35 92.0199 212.48 92.0099C213.29 92.2599 214.13 92.4699 214.92 92.7799C218.17 94.0799 219.97 97.4599 219.24 100.86C218.54 104.12 215.59 106.52 212.27 106.53C208.94 106.53 206 104.15 205.32 100.89C204.61 97.4999 206.41 94.1099 209.67 92.7999C210.46 92.4799 211.29 92.2799 212.11 92.0199L212.1 92.0099Z" fill="white"/>
<path d="M485.96 591.95H486.05C485.19 591.59 484.33 591.22 483.46 590.86C480.2 589.52 478.39 586.19 479.11 582.82C479.81 579.54 482.71 577.18 486.05 577.18C489.39 577.18 492.28 579.54 492.96 582.82C493.65 586.18 491.83 589.51 488.55 590.86C487.68 591.22 486.82 591.59 485.95 591.95H485.96Z" fill="white"/>
<path d="M157.52 547.53C160.29 544.72 164.7 544.67 167.49 547.43C170.28 550.18 170.32 554.66 167.6 557.44C164.91 560.18 160.29 560.22 157.54 557.54C154.78 554.84 154.77 550.32 157.52 547.53Z" fill="white"/>
<path d="M125.48 514.98C128.26 512.21 132.77 512.19 135.49 514.94C138.19 517.66 138.17 522.28 135.46 525C132.71 527.75 128.21 527.73 125.45 524.96C122.67 522.18 122.69 517.77 125.48 514.99V514.98Z" fill="white"/>
<path d="M141.48 531.29C144.27 528.55 148.7 528.6 151.43 531.39C154.15 534.16 154.1 538.68 151.33 541.37C148.56 544.06 143.99 544.01 141.32 541.27C138.62 538.49 138.69 534.03 141.48 531.29Z" fill="white"/>
<path d="M346.71 45.7299C349.48 48.4999 349.44 52.9499 346.61 55.6799C343.89 58.2999 339.52 58.2699 336.85 55.6199C334.08 52.8699 334.18 48.4699 336.92 45.6499C339.24 43.2599 344.49 43.1499 346.71 45.7299Z" fill="white"/>
<path d="M87.32 240.23C90.03 243.01 89.96 247.21 87.16 249.95C84.41 252.64 80.05 252.6 77.4 249.87C74.78 247.17 74.86 242.69 77.56 240.07C80.3 237.41 84.63 237.49 87.32 240.24V240.23Z" fill="white"/>
<path d="M249.43 78.2199C252.19 80.8999 252.28 85.2299 249.64 87.9799C247.03 90.6899 242.55 90.7799 239.84 88.1799C237.1 85.5499 237.05 81.1799 239.72 78.4199C242.45 75.5999 246.65 75.5099 249.43 78.2199Z" fill="white"/>
<path d="M422 623.83C421.52 623.83 421.04 623.84 420.56 623.85C419.78 623.51 418.98 623.21 418.22 622.83C415.39 621.41 413.91 618.24 414.63 615.18C415.35 612.09 418.08 609.92 421.25 609.9C424.41 609.88 427.15 612.03 427.89 615.1C428.62 618.16 427.16 621.34 424.33 622.79C423.57 623.18 422.77 623.48 421.99 623.82L422 623.83Z" fill="white"/>
<path d="M119.56 191.58C122.31 194.27 122.32 198.54 119.57 201.25C116.94 203.85 112.69 203.89 110.05 201.34C107.4 198.78 107.39 194.17 110.04 191.58C112.67 189.01 116.93 189.01 119.55 191.58H119.56Z" fill="white"/>
<path d="M200.85 110.81C203.54 113.49 203.52 117.92 200.8 120.52C198.17 123.03 193.81 123.01 191.25 120.46C188.66 117.88 188.63 113.6 191.18 110.95C193.86 108.16 198.13 108.1 200.85 110.81Z" fill="white"/>
<path d="M102.87 466.63C105.55 469.24 105.64 473.42 103.06 476.12C100.42 478.9 96 478.97 93.33 476.28C90.76 473.69 90.76 469.33 93.33 466.72C95.92 464.09 100.21 464.05 102.86 466.62L102.87 466.63Z" fill="white"/>
<path d="M507.03 572.76C504.42 575.41 500.22 575.47 497.56 572.91C494.82 570.27 494.81 565.86 497.53 563.22C500.17 560.65 504.46 560.68 507.04 563.27C509.63 565.88 509.63 570.13 507.04 572.76H507.03Z" fill="white"/>
<path d="M458.46 605.17C455.86 607.83 451.62 607.9 448.96 605.32C446.3 602.74 446.25 598.49 448.84 595.82C451.42 593.15 455.68 593.08 458.34 595.67C461 598.25 461.05 602.51 458.46 605.17Z" fill="white"/>
<path d="M206.43 579.97C209.14 577.35 213.27 577.45 215.87 580.2C218.35 582.83 218.29 586.92 215.74 589.46C213.13 592.07 208.82 592.05 206.24 589.44C203.65 586.81 203.73 582.58 206.43 579.98V579.97Z" fill="white"/>
<path d="M59.15 293.77C59.16 293.66 59.16 293.54 59.15 293.43C59.43 292.62 59.66 291.8 60 291.02C61.27 288.08 64.41 286.43 67.48 287.06C70.62 287.7 72.81 290.38 72.8 293.59C72.8 296.8 70.6 299.48 67.45 300.14C64.37 300.78 61.25 299.15 59.99 296.2C59.66 295.42 59.43 294.59 59.15 293.79V293.77Z" fill="white"/>
<path d="M555.65 514.91C558.28 517.48 558.38 521.46 555.86 524.11C553.26 526.86 549.06 526.99 546.41 524.41C543.8 521.87 543.8 517.48 546.4 514.91C548.96 512.38 553.05 512.38 555.65 514.91Z" fill="white"/>
<path d="M184.47 136.45C181.85 139.07 177.88 139.09 175.25 136.5C172.66 133.94 172.58 129.84 175.08 127.23C177.61 124.59 182.06 124.57 184.6 127.18C187.11 129.76 187.05 133.86 184.46 136.45H184.47Z" fill="white"/>
<path d="M126.38 175.65C128.95 173.04 133.04 172.95 135.65 175.44C138.28 177.96 138.3 182.4 135.67 184.96C133.09 187.48 128.98 187.44 126.4 184.87C123.79 182.26 123.78 178.29 126.38 175.65Z" fill="white"/>
<path d="M523.09 547.24C525.64 549.81 525.67 553.92 523.15 556.48C520.6 559.07 516.13 559.04 513.65 556.42C511.19 553.82 511.3 549.73 513.9 547.18C516.52 544.61 520.49 544.63 523.08 547.24H523.09Z" fill="white"/>
<path d="M539.52 531.28C542.08 533.88 542.03 537.92 539.4 540.49C536.8 543.03 532.62 543.01 530.13 540.45C527.68 537.92 527.74 533.58 530.26 531.13C532.84 528.62 536.97 528.68 539.52 531.27V531.28Z" fill="white"/>
<path d="M77.37 443.7C74.82 441.09 74.9 437.05 77.54 434.49C80.15 431.96 84.34 432 86.81 434.58C89.25 437.13 89.17 441.47 86.63 443.9C84.03 446.4 79.91 446.31 77.37 443.71V443.7Z" fill="white"/>
<path d="M142.61 168.57C140.06 165.98 140.14 161.9 142.77 159.36C145.3 156.93 149.33 156.93 151.82 159.36C154.35 161.82 154.36 166.13 151.86 168.65C149.33 171.19 145.15 171.16 142.61 168.58V168.57Z" fill="white"/>
<path d="M61.31 386.15C63.85 383.55 67.96 383.46 70.54 385.94C73.06 388.37 73.12 392.67 70.67 395.22C68.2 397.79 64.02 397.84 61.44 395.33C58.82 392.79 58.77 388.76 61.31 386.15Z" fill="white"/>
<path d="M168.27 152.52C165.73 155.12 161.65 155.16 159.09 152.61C156.54 150.07 156.55 145.9 159.11 143.4C161.59 140.97 165.62 140.93 168.14 143.31C170.73 145.74 170.79 149.94 168.27 152.52Z" fill="white"/>
<path d="M297.81 71.41C295.27 74 291.14 74.0099 288.6 71.4299C286.16 68.9399 286.16 64.9199 288.6 62.4099C291.13 59.8199 295.31 59.8099 297.83 62.3899C300.27 64.8799 300.25 68.91 297.81 71.41Z" fill="white"/>
<path d="M109.77 483.12C112.31 480.56 116.45 480.59 118.95 483.17C121.38 485.69 121.34 489.65 118.86 492.14C116.32 494.7 112.18 494.68 109.68 492.09C107.27 489.59 107.31 485.59 109.76 483.12H109.77Z" fill="white"/>
<path d="M103.07 224.28C105.6 226.77 105.64 230.69 103.16 233.24C100.7 235.77 96.72 235.88 94.18 233.48C91.58 231.02 91.53 226.81 94.09 224.28C96.58 221.81 100.57 221.81 103.07 224.28Z" fill="white"/>
<path d="M280.12 621.52C277.58 624.01 273.67 624 271.16 621.48C268.68 618.99 268.66 615.01 271.11 612.5C273.62 609.93 277.84 609.95 280.31 612.53C282.72 615.06 282.64 619.04 280.12 621.51V621.52Z" fill="white"/>
<path d="M199.4 572.99C196.88 575.57 193 575.62 190.44 573.12C187.92 570.65 187.86 566.64 190.31 564.13C192.74 561.64 196.85 561.58 199.34 564C201.85 566.44 201.88 570.46 199.4 572.99Z" fill="white"/>
<path d="M223.92 94.9799C226.43 92.3999 230.32 92.3399 232.88 94.8399C235.41 97.3099 235.47 101.32 233.02 103.83C230.6 106.32 226.48 106.39 223.99 103.97C221.48 101.53 221.44 97.5199 223.91 94.9799H223.92Z" fill="white"/>
<path d="M247.75 605.34C245.2 607.85 241.35 607.82 238.83 605.27C236.37 602.77 236.39 598.76 238.89 596.31C241.36 593.9 245.49 593.93 247.89 596.38C250.33 598.87 250.26 602.86 247.75 605.34Z" fill="white"/>
<path d="M362.46 46.2699C364.9 48.7799 364.83 52.8499 362.29 55.2099C359.86 57.4799 355.84 57.4399 353.5 55.1299C351.03 52.6899 351.06 48.6699 353.57 46.1899C356.11 43.6699 359.96 43.6999 362.46 46.2799V46.2699Z" fill="white"/>
<path d="M70.44 305.29C73.01 307.8 73.01 311.68 70.46 314.21C68.03 316.61 64.12 316.65 61.69 314.31C59.25 311.95 59.24 307.68 61.67 305.28C64.08 302.91 68.01 302.91 70.44 305.28V305.29Z" fill="white"/>
<path d="M86.81 256.85C89.29 259.38 89.19 263.28 86.59 265.74C84.13 268.06 80.19 268 77.86 265.61C75.56 263.25 75.57 259.2 77.87 256.83C80.29 254.34 84.35 254.36 86.8 256.86L86.81 256.85Z" fill="white"/>
<path d="M134.8 499.34C137.26 501.74 137.32 505.57 134.96 508.05C132.52 510.61 128.45 510.66 126.01 508.18C123.68 505.8 123.7 501.76 126.05 499.39C128.44 496.99 132.37 496.97 134.8 499.34Z" fill="white"/>
<path d="M183.13 556.76C180.71 559.21 176.88 559.28 174.42 556.91C171.89 554.47 171.86 550.39 174.36 547.96C176.76 545.63 180.81 545.65 183.15 548.01C185.53 550.4 185.52 554.33 183.13 556.76Z" fill="white"/>
<path d="M256.45 78.7899C258.88 76.3499 262.71 76.3099 265.16 78.6999C267.68 81.1499 267.68 85.2499 265.16 87.6499C262.74 89.9599 258.69 89.9099 256.37 87.5399C254.01 85.1199 254.05 81.2099 256.45 78.7899Z" fill="white"/>
<path d="M474.26 588.59C471.87 591.02 468.02 591.09 465.58 588.75C463.06 586.32 463.03 582.27 465.52 579.84C467.92 577.51 471.91 577.52 474.26 579.88C476.63 582.26 476.63 586.17 474.26 588.59Z" fill="white"/>
<path d="M70.33 370.07C72.75 372.46 72.8 376.3 70.44 378.75C68 381.28 63.94 381.31 61.53 378.82C59.21 376.42 59.25 372.43 61.62 370.08C64.02 367.71 67.92 367.7 70.33 370.08V370.07Z" fill="white"/>
<path d="M166.89 540.63C164.47 543.03 160.54 543.01 158.17 540.58C155.79 538.15 155.87 534.23 158.36 531.86C160.77 529.56 164.5 529.58 166.87 531.91C169.31 534.3 169.32 538.22 166.9 540.63H166.89Z" fill="white"/>
<path d="M142.25 515.74C144.63 513.26 148.5 513.18 150.92 515.56C153.32 517.93 153.33 521.86 150.94 524.26C148.61 526.59 144.88 526.65 142.47 524.39C139.95 522.02 139.85 518.24 142.25 515.75V515.74Z" fill="white"/>
<path d="M409.4 612.51C411.73 614.87 411.76 618.62 409.47 620.99C407.12 623.42 403.12 623.45 400.75 621.05C398.36 618.63 398.45 614.76 400.96 612.37C403.39 610.05 407.04 610.11 409.4 612.51Z" fill="white"/>
<path d="M216.56 119.75C214.21 122.18 210.59 122.29 208.16 120C205.65 117.64 205.53 113.79 207.88 111.35C210.21 108.94 214.22 108.92 216.57 111.29C218.86 113.61 218.86 117.36 216.56 119.74V119.75Z" fill="white"/>
<path d="M110.6 216.92C108.2 214.56 108.12 210.95 110.43 208.52C112.81 206.02 116.67 205.91 119.08 208.27C121.46 210.61 121.45 214.62 119.05 216.96C116.7 219.25 112.96 219.23 110.6 216.92Z" fill="white"/>
<path d="M61.93 321.65C64.3 319.35 68.11 319.36 70.4 321.68C72.66 323.98 72.66 327.88 70.4 330.19C68.03 332.61 64.11 332.55 61.74 330.06C59.42 327.63 59.51 324.01 61.94 321.65H61.93Z" fill="white"/>
<path d="M94.01 451.1C96.36 448.75 100.19 448.73 102.49 451.04C104.76 453.33 104.75 457.29 102.47 459.57C100.16 461.89 96.33 461.87 93.99 459.52C91.6 457.13 91.61 453.48 94.01 451.09V451.1Z" fill="white"/>
<path d="M61.84 354.07C64.2 351.74 68.04 351.73 70.32 354.05C72.58 356.35 72.55 360.31 70.26 362.59C67.93 364.9 64.12 364.86 61.78 362.5C59.4 360.11 59.43 356.46 61.84 354.07Z" fill="white"/>
<path d="M61.91 346.37C59.51 344.03 59.49 340.32 61.87 337.95C64.21 335.61 68.08 335.6 70.34 337.93C72.5 340.16 72.52 343.97 70.38 346.24C68.15 348.61 64.27 348.67 61.91 346.36V346.37Z" fill="white"/>
<path d="M433.24 596.43C435.56 594.04 439.28 593.99 441.63 596.32C443.96 598.64 443.97 602.47 441.65 604.75C439.42 606.94 435.68 606.99 433.38 604.86C431.01 602.66 430.94 598.8 433.24 596.43Z" fill="white"/>
<path d="M222.95 580.65C225.25 578.25 229.02 578.2 231.36 580.54C233.62 582.8 233.66 586.45 231.46 588.77C229.21 591.14 225.31 591.19 223 588.88C220.76 586.64 220.73 582.95 222.94 580.65H222.95Z" fill="white"/>
<path d="M482.01 563.86C484.31 561.64 488 561.67 490.24 563.94C492.49 566.22 492.49 569.89 490.24 572.18C487.91 574.54 484.06 574.5 481.8 572.09C479.6 569.74 479.7 566.1 482.02 563.86H482.01Z" fill="white"/>
<path d="M86.23 418.9C88.49 421.19 88.47 424.79 86.19 427.07C83.91 429.35 80.3 429.4 78 427.17C75.65 424.9 75.67 421.03 78.04 418.77C80.35 416.56 83.98 416.61 86.23 418.9Z" fill="white"/>
<path d="M126.96 192.22C129.26 190 132.89 190.04 135.15 192.32C137.42 194.61 137.41 198.2 135.14 200.49C132.79 202.86 129.02 202.83 126.75 200.42C124.59 198.13 124.68 194.42 126.96 192.22Z" fill="white"/>
<path d="M200.19 127.72C202.44 130.01 202.42 133.63 200.16 135.91C197.85 138.24 193.99 138.18 191.76 135.79C189.58 133.46 189.69 129.84 192.01 127.6C194.33 125.36 197.93 125.42 200.18 127.72H200.19Z" fill="white"/>
<path d="M313.57 62.89C315.81 65.22 315.74 68.86 313.41 71.08C311.12 73.27 307.37 73.1999 305.19 70.9199C302.97 68.6099 303.07 64.98 305.4 62.72C307.75 60.45 311.3 60.53 313.57 62.88V62.89Z" fill="white"/>
<path d="M295.83 620.98C293.57 623.22 290.17 623.24 287.89 621.03C285.57 618.77 285.53 615.08 287.81 612.84C289.97 610.72 293.66 610.69 295.85 612.79C298.14 614.99 298.13 618.69 295.83 620.98Z" fill="white"/>
<path d="M183.78 143.93C186.07 146.16 186.1 149.88 183.83 152.09C181.68 154.19 177.98 154.2 175.82 152.12C173.64 150.02 173.57 146.41 175.67 144.17C177.92 141.77 181.44 141.67 183.77 143.94L183.78 143.93Z" fill="white"/>
<path d="M547.1 507.47C544.79 505.16 544.83 501.64 547.2 499.37C549.42 497.23 553 497.24 555.16 499.38C557.35 501.56 557.3 505.47 555.06 507.59C552.83 509.7 549.29 509.65 547.1 507.47Z" fill="white"/>
<path d="M151.21 176.19C153.52 178.49 153.48 182.02 151.11 184.29C148.89 186.43 145.31 186.42 143.15 184.28C140.96 182.1 141.01 178.19 143.25 176.07C145.48 173.96 149.02 174.01 151.21 176.19Z" fill="white"/>
<path d="M102.66 241.08C104.91 243.42 104.79 246.95 102.37 249.18C100.12 251.26 96.5 251.17 94.42 248.97C92.35 246.79 92.39 243.1 94.5 240.96C96.72 238.71 100.44 238.76 102.66 241.07V241.08Z" fill="white"/>
<path d="M248.68 95.39C250.84 97.58 250.86 101.15 248.74 103.35C246.59 105.57 242.68 105.58 240.53 103.38C238.4 101.2 238.43 97.63 240.58 95.42C242.87 93.08 246.39 93.06 248.68 95.39Z" fill="white"/>
<path d="M167.53 168.3C165.31 170.4 161.58 170.32 159.51 168.13C157.39 165.89 157.5 162.3 159.75 160.15C162.02 157.98 165.51 158.05 167.69 160.33C169.83 162.56 169.75 166.2 167.52 168.31L167.53 168.3Z" fill="white"/>
<path d="M506.36 547.92C508.49 550.14 508.4 553.74 506.16 555.9C503.9 558.09 500.41 558.03 498.22 555.77C496.07 553.55 496.12 549.92 498.34 547.79C500.55 545.67 504.27 545.73 506.36 547.92Z" fill="white"/>
<path d="M255.58 596.77C257.78 594.65 261.5 594.69 263.6 596.87C265.74 599.08 265.66 602.68 263.43 604.85C261.18 607.05 257.69 607 255.49 604.75C253.33 602.54 253.37 598.91 255.58 596.77Z" fill="white"/>
<path d="M118.22 475.51C115.98 477.66 112.34 477.6 110.24 475.38C108.14 473.17 108.23 469.44 110.43 467.36C112.68 465.23 116.26 465.33 118.41 467.57C120.58 469.83 120.49 473.32 118.21 475.51H118.22Z" fill="white"/>
<path d="M215.09 564.7C217.22 566.94 217.11 570.52 214.84 572.63C212.57 574.75 209.01 574.61 206.91 572.32C204.91 570.13 205.01 566.68 207.15 564.59C209.38 562.41 212.95 562.46 215.09 564.7Z" fill="white"/>
<path d="M86.21 273.36C88.45 275.52 88.49 279.07 86.31 281.29C84.14 283.5 80.55 283.52 78.37 281.32C76.26 279.19 76.22 275.79 78.28 273.59C80.4 271.32 83.99 271.22 86.21 273.37V273.36Z" fill="white"/>
<path d="M531.02 515.66C533.25 513.5 536.83 513.58 538.95 515.83C541.01 518.02 540.96 521.42 538.85 523.56C536.67 525.77 533.09 525.78 530.92 523.58C528.74 521.37 528.79 517.82 531.02 515.65V515.66Z" fill="white"/>
<path d="M280.85 79.09C283.02 81.16 283.12 84.58 281.08 86.81C278.94 89.16 275.45 89.28 273.17 87.1C270.99 85.01 270.87 81.59 272.9 79.37C274.99 77.08 278.61 76.95 280.85 79.08V79.09Z" fill="white"/>
<path d="M522.41 531.78C524.53 533.92 524.56 537.35 522.48 539.51C520.32 541.75 516.72 541.79 514.53 539.59C512.34 537.39 512.42 533.82 514.7 531.66C516.92 529.56 520.27 529.62 522.41 531.78Z" fill="white"/>
<path d="M377.9 54.5499C375.69 56.6699 372.36 56.6199 370.21 54.4399C368.01 52.2099 368.09 48.6199 370.39 46.5199C372.37 44.7099 376.39 44.8799 378.2 46.8299C380.23 49.0199 380.09 52.4299 377.89 54.5499H377.9Z" fill="white"/>
<path d="M392.79 613.03C394.88 615.18 394.85 618.65 392.72 620.7C390.61 622.73 387.01 622.68 384.99 620.6C382.92 618.47 383 615.05 385.17 612.93C387.36 610.79 390.65 610.83 392.79 613.03Z" fill="white"/>
<path d="M198.6 548.55C200.76 550.64 200.82 554.08 198.74 556.2C196.7 558.27 193.08 558.28 191.04 556.22C189.04 554.2 189.02 550.87 190.99 548.77C193.08 546.55 196.42 546.45 198.59 548.55H198.6Z" fill="white"/>
<path d="M134.44 483.83C136.45 485.94 136.35 489.6 134.23 491.57C132.03 493.61 128.61 493.46 126.54 491.24C124.56 489.1 124.65 485.87 126.75 483.8C128.9 481.68 132.4 481.69 134.44 483.83Z" fill="white"/>
<path d="M118.56 224.97C120.65 227.03 120.61 230.63 118.49 232.66C116.4 234.65 113.09 234.61 111.04 232.58C108.97 230.53 108.92 227.27 110.91 225.16C112.98 222.97 116.45 222.88 118.57 224.97H118.56Z" fill="white"/>
<path d="M224.67 111.73C226.78 109.67 230.38 109.75 232.36 111.9C234.31 114.02 234.21 117.32 232.14 119.35C229.98 121.47 226.59 121.4 224.52 119.18C222.56 117.08 222.63 113.72 224.68 111.72L224.67 111.73Z" fill="white"/>
<path d="M449.84 580.64C451.86 578.53 455.13 578.41 457.26 580.35C459.48 582.38 459.61 585.83 457.56 588C455.54 590.13 451.94 590.18 449.87 588.09C447.86 586.06 447.84 582.72 449.84 580.63V580.64Z" fill="white"/>
<path d="M94.42 435.5C96.44 433.39 99.76 433.31 101.87 435.32C103.99 437.34 104.06 440.65 102.03 442.77C100.01 444.88 96.67 444.96 94.57 442.96C92.48 440.96 92.41 437.6 94.41 435.5H94.42Z" fill="white"/>
<path d="M182.5 532.57C184.52 534.63 184.47 537.93 182.39 539.97C180.28 542.04 177.08 542.01 175.01 539.9C172.98 537.82 173.01 534.52 175.08 532.5C177.13 530.49 180.5 530.52 182.5 532.56V532.57Z" fill="white"/>
<path d="M150.24 507.52C148.14 509.54 144.83 509.48 142.84 507.39C140.86 505.32 140.94 501.95 143.02 499.97C145.11 497.97 148.41 498.05 150.42 500.14C152.46 502.26 152.38 505.46 150.24 507.52Z" fill="white"/>
<path d="M329.12 63.13C331.24 65.17 331.29 68.51 329.23 70.55C327.29 72.48 323.96 72.52 321.97 70.64C319.88 68.66 319.87 65.3 321.95 63.22C323.99 61.18 327.06 61.14 329.12 63.13Z" fill="white"/>
<path d="M85.82 403.24C87.81 405.3 87.78 408.37 85.75 410.41C83.68 412.5 80.32 412.5 78.33 410.41C76.44 408.43 76.47 405.1 78.4 403.15C80.44 401.09 83.78 401.13 85.82 403.24Z" fill="white"/>
<path d="M166.4 516.5C168.38 518.6 168.25 521.9 166.09 523.91C163.92 525.93 160.74 525.79 158.73 523.57C156.86 521.5 156.96 518.3 158.95 516.37C161.01 514.38 164.44 514.44 166.39 516.51L166.4 516.5Z" fill="white"/>
<path d="M247.13 581.12C249.02 583.14 248.92 586.35 246.91 588.32C244.79 590.39 241.57 590.28 239.57 588.07C237.71 586.02 237.86 582.71 239.89 580.88C241.92 579.05 245.3 579.16 247.13 581.12Z" fill="white"/>
<path d="M311.78 613.36C313.67 615.38 313.57 618.59 311.56 620.56C309.44 622.63 306.22 622.52 304.22 620.32C302.36 618.27 302.51 614.96 304.54 613.13C306.57 611.3 309.95 611.41 311.78 613.37V613.36Z" fill="white"/>
<path d="M127.43 208.9C129.45 206.98 132.69 207.06 134.63 209.08C136.6 211.13 136.53 214.25 134.47 216.24C132.45 218.19 129.18 218.15 127.27 216.15C125.39 214.18 125.46 210.77 127.43 208.9Z" fill="white"/>
<path d="M208.7 128.14C210.75 126.15 213.86 126.2 215.86 128.24C217.81 130.25 217.78 133.51 215.78 135.44C213.81 137.34 210.4 137.29 208.53 135.34C206.6 133.34 206.68 130.1 208.7 128.14Z" fill="white"/>
<path d="M424.95 604.03C422.96 606.1 419.84 606.17 417.79 604.2C415.77 602.25 415.68 599.02 417.6 597C419.46 595.03 422.87 594.96 424.85 596.83C426.86 598.73 426.9 602 424.95 604.03Z" fill="white"/>
<path d="M95.08 257.53C97.12 255.6 100.33 255.71 102.23 257.76C104.13 259.81 103.97 263.01 101.89 264.9C99.91 266.7 96.81 266.61 94.94 264.7C93 262.72 93.07 259.43 95.08 257.53Z" fill="white"/>
<path d="M264.39 95.8099C266.35 97.7999 266.29 101.04 264.27 102.96C262.33 104.8 259.22 104.8 257.3 102.95C255.3 101.02 255.27 97.7799 257.25 95.7999C259.23 93.8099 262.42 93.8199 264.39 95.8099Z" fill="white"/>
<path d="M473.4 564.65C475.32 566.59 475.32 569.66 473.42 571.59C471.46 573.58 468.15 573.54 466.25 571.51C464.4 569.53 464.51 566.48 466.48 564.57C468.46 562.65 471.46 562.69 473.4 564.65Z" fill="white"/>
<path d="M376.3 613.4C378.18 615.36 378.15 618.45 376.22 620.34C374.23 622.3 370.92 622.21 369.05 620.16C367.24 618.16 367.38 615.11 369.38 613.22C371.38 611.33 374.39 611.41 376.3 613.4Z" fill="white"/>
<path d="M85.84 290.05C87.72 291.94 87.74 295.1 85.87 297.02C83.9 299.05 80.69 299.01 78.73 296.95C76.84 294.96 76.91 291.96 78.9 290.03C80.86 288.13 83.94 288.14 85.84 290.05Z" fill="white"/>
<path d="M192.43 144.56C194.24 142.64 197.41 142.53 199.36 144.31C201.34 146.11 201.47 149.19 199.65 151.2C197.7 153.35 194.64 153.46 192.59 151.46C190.65 149.56 190.58 146.52 192.43 144.56Z" fill="white"/>
<path d="M150.65 192.84C152.53 194.68 152.6 197.84 150.78 199.77C148.87 201.8 145.66 201.81 143.68 199.79C141.76 197.82 141.78 194.88 143.75 192.93C145.68 191.01 148.73 190.97 150.65 192.84Z" fill="white"/>
<path d="M296.56 86.55C294.57 88.49 291.64 88.45 289.7 86.46C287.81 84.52 287.84 81.41 289.77 79.55C291.68 77.71 294.88 77.76 296.72 79.64C298.59 81.56 298.51 84.63 296.56 86.54V86.55Z" fill="white"/>
<path d="M110.72 458.47C108.9 456.42 109.12 453.49 111.23 451.62C113.25 449.83 116.4 450.03 118.11 452.06C119.83 454.09 119.6 457.29 117.61 459C115.57 460.75 112.53 460.52 110.72 458.47Z" fill="white"/>
<path d="M272.21 597.45C274.15 595.44 277.08 595.38 279.07 597.31C281.03 599.21 281.1 602.28 279.24 604.21C277.41 606.11 274.21 606.18 272.29 604.36C270.36 602.53 270.32 599.4 272.21 597.45Z" fill="white"/>
<path d="M166.8 183.68C164.87 185.55 161.77 185.46 159.89 183.49C157.98 181.49 158.1 178.54 160.16 176.63C162.07 174.86 165.07 174.9 166.87 176.72C168.73 178.59 168.7 181.85 166.81 183.69L166.8 183.68Z" fill="white"/>
<path d="M183.33 160.77C185.19 162.7 185.08 165.8 183.08 167.68C181.06 169.59 178.11 169.47 176.22 167.4C174.47 165.49 174.53 162.49 176.36 160.69C178.24 158.84 181.51 158.87 183.33 160.76V160.77Z" fill="white"/>
<path d="M230.63 565.19C232.44 567.03 232.47 570.02 230.7 571.87C228.89 573.77 225.61 573.79 223.78 571.92C221.92 570.02 222.02 566.89 223.99 565.04C225.9 563.26 228.79 563.32 230.63 565.19Z" fill="white"/>
<path d="M547.74 483.85C549.64 481.98 552.78 482.06 554.62 484.03C556.4 485.93 556.33 488.83 554.46 490.67C552.61 492.48 549.63 492.53 547.78 490.77C545.89 488.97 545.87 485.69 547.74 483.85Z" fill="white"/>
<path d="M489.37 555.3C487.49 557.1 484.48 557.05 482.69 555.17C480.89 553.29 480.96 550.31 482.84 548.5C484.71 546.69 487.71 546.75 489.51 548.62C491.31 550.49 491.25 553.5 489.38 555.3H489.37Z" fill="white"/>
<path d="M327.55 620.21C325.72 622.06 322.71 622.08 320.87 620.25C319.03 618.42 319.03 615.43 320.87 613.57C322.7 611.72 325.69 611.7 327.54 613.53C329.39 615.36 329.4 618.35 327.57 620.2L327.55 620.21Z" fill="white"/>
<path d="M531.76 500.14C533.65 498.34 536.63 498.42 538.37 500.32C540.01 502.12 539.95 505.03 538.24 506.76C536.42 508.6 533.47 508.59 531.63 506.72C529.78 504.84 529.84 501.98 531.77 500.14H531.76Z" fill="white"/>
<path d="M241.34 112.28C243.22 110.4 246.07 110.42 247.92 112.32C249.66 114.12 249.69 116.92 247.99 118.73C246.24 120.58 243.18 120.66 241.35 118.89C239.49 117.1 239.49 114.14 241.35 112.28H241.34Z" fill="white"/>
<path d="M353.25 613.56C355.04 611.75 358.11 611.74 359.89 613.56C361.7 615.4 361.64 618.35 359.74 620.17C357.91 621.93 355.17 621.93 353.36 620.17C351.48 618.35 351.43 615.4 353.25 613.56Z" fill="white"/>
<path d="M118.01 241.71C119.88 243.58 119.85 246.43 117.93 248.29C116.13 250.04 113.32 250.07 111.52 248.37C109.67 246.63 109.62 243.56 111.39 241.73C113.2 239.87 116.15 239.86 118 241.71H118.01Z" fill="white"/>
<path d="M133.83 468.26C135.6 470.09 135.58 472.81 133.78 474.64C131.93 476.52 128.95 476.52 127.16 474.66C125.49 472.91 125.51 469.94 127.21 468.21C129.03 466.35 131.99 466.38 133.83 468.27V468.26Z" fill="white"/>
<path d="M505.51 532.33C507.3 534.03 507.39 536.88 505.7 538.74C503.89 540.73 501.04 540.85 499.13 539C497.24 537.17 497.2 534.2 499.06 532.38C500.79 530.68 503.76 530.65 505.51 532.32V532.33Z" fill="white"/>
<path d="M343.55 613.53C345.34 615.21 345.39 618.15 343.65 619.96C341.86 621.82 339.11 621.9 337.27 620.13C335.45 618.39 335.36 615.5 337.07 613.7C338.73 611.95 341.78 611.87 343.55 613.54V613.53Z" fill="white"/>
<path d="M85.33 387.4C87.15 389.21 87.18 391.93 85.39 393.77C83.63 395.58 80.79 395.69 78.97 394C77.12 392.29 77.09 389.1 78.91 387.33C80.69 385.59 83.54 385.62 85.33 387.4Z" fill="white"/>
<path d="M214.25 549.02C216.05 550.71 216.13 553.59 214.42 555.44C212.66 557.34 209.94 557.49 208.05 555.78C206.09 554 205.96 551.03 207.78 549.16C209.47 547.43 212.48 547.36 214.25 549.02Z" fill="white"/>
<path d="M338.53 63.6799C340.34 61.8399 343.08 61.7999 344.91 63.5999C346.71 65.3699 346.76 68.2499 345.02 70.0299C343.33 71.7599 340.27 71.7999 338.54 70.1099C336.77 68.3899 336.77 65.4699 338.54 63.6799H338.53Z" fill="white"/>
<path d="M521.95 516.39C523.68 518.07 523.73 521.08 522.06 522.86C520.36 524.67 517.48 524.75 515.64 523.05C513.66 521.22 513.61 518.37 515.52 516.48C517.31 514.71 520.17 514.67 521.94 516.4L521.95 516.39Z" fill="white"/>
<path d="M101.5 419.81C103.29 421.65 103.24 424.39 101.39 426.19C99.59 427.94 96.66 427.92 94.96 426.15C93.28 424.4 93.33 421.34 95.07 419.67C96.86 417.94 99.75 418.01 101.5 419.81Z" fill="white"/>
<path d="M440.81 581.2C442.5 582.99 442.39 585.86 440.58 587.59C438.75 589.33 435.99 589.26 434.24 587.43C432.53 585.63 432.59 582.73 434.38 581.05C436.16 579.39 439.17 579.46 440.81 581.2Z" fill="white"/>
<path d="M198.08 533.1C199.75 534.79 199.78 537.55 198.14 539.27C196.41 541.09 193.55 541.13 191.78 539.36C190.02 537.6 190.08 534.69 191.91 532.99C193.66 531.36 196.41 531.41 198.08 533.1Z" fill="white"/>
<path d="M149.83 490.68C148.16 492.38 145.41 492.45 143.66 490.84C141.83 489.15 141.76 486.24 143.52 484.47C145.2 482.77 147.95 482.71 149.69 484.32C151.53 486.03 151.59 488.89 149.83 490.68Z" fill="white"/>
<path d="M393.83 53.68C391.94 55.5 389.31 55.67 387.51 54.35C385.8 53.09 385.12 50.61 386.02 48.72C386.54 47.62 387.23 46.81 388.69 47.16C389.79 47.43 390.94 47.51 392.07 47.68C394.81 48.11 395.69 49.67 394.64 52.28C394.39 52.88 393.98 53.42 393.83 53.67V53.68Z" fill="white"/>
<path d="M85.39 312.85C83.7 314.54 80.95 314.55 79.23 312.88C77.48 311.18 77.43 308.52 79.11 306.74C80.85 304.91 83.74 304.88 85.46 306.68C87.1 308.4 87.07 311.16 85.38 312.85H85.39Z" fill="white"/>
<path d="M133.83 232.11C132.03 233.66 129.29 233.47 127.69 231.68C125.99 229.79 126.24 227 128.24 225.37C130.11 223.85 132.84 224.11 134.36 225.95C135.87 227.78 135.63 230.56 133.84 232.11H133.83Z" fill="white"/>
<path d="M262.72 581.63C264.38 583.36 264.34 586.11 262.63 587.79C260.85 589.54 257.92 589.46 256.26 587.61C254.67 585.84 254.81 583.11 256.58 581.46C258.37 579.79 261.03 579.87 262.72 581.63Z" fill="white"/>
<path d="M231.18 135.02C229.33 136.62 226.71 136.41 225.08 134.52C223.52 132.7 223.73 129.92 225.56 128.39C227.39 126.86 230.21 127.09 231.73 128.88C233.27 130.7 233.02 133.42 231.18 135.02Z" fill="white"/>
<path d="M408.13 603.72C406.41 605.35 403.53 605.27 401.93 603.55C400.31 601.8 400.46 599.06 402.27 597.4C404.01 595.81 406.5 595.88 408.17 597.56C409.87 599.28 409.85 602.08 408.13 603.71V603.72Z" fill="white"/>
<path d="M280.13 96.2399C281.79 97.9599 281.72 100.69 279.98 102.39C278.21 104.11 275.57 104.07 273.86 102.29C272.19 100.56 272.23 97.7799 273.95 96.1399C275.66 94.4999 278.49 94.5499 280.13 96.2399Z" fill="white"/>
<path d="M181.78 516.98C183.52 518.67 183.58 521.41 181.91 523.13C180.26 524.83 177.44 524.89 175.73 523.25C174.02 521.61 173.98 518.83 175.66 517.1C177.38 515.32 180.01 515.27 181.78 516.98Z" fill="white"/>
<path d="M101.6 274.23C103.28 275.89 103.3 278.72 101.64 280.41C99.97 282.12 97.21 282.13 95.49 280.44C93.73 278.71 93.71 276.08 95.45 274.32C97.16 272.59 99.9 272.55 101.6 274.23Z" fill="white"/>
<path d="M165.9 500.6C167.58 502.26 167.61 505.08 165.96 506.78C164.3 508.49 161.53 508.51 159.81 506.83C158.04 505.1 158.02 502.47 159.75 500.71C161.46 498.97 164.2 498.93 165.9 500.6Z" fill="white"/>
<path d="M312.11 86.29C310.28 87.88 307.66 87.64 306.07 85.74C304.62 84.01 304.8 81.33 306.47 79.85C308.22 78.29 311.12 78.45 312.62 80.19C314.17 81.99 313.95 84.69 312.11 86.29Z" fill="white"/>
<path d="M150.07 209.46C151.69 210.96 151.8 213.72 150.3 215.4C148.8 217.08 146.11 217.22 144.4 215.71C142.57 214.09 142.46 211.39 144.16 209.64C145.78 207.99 148.39 207.9 150.07 209.45V209.46Z" fill="white"/>
<path d="M215.11 150.92C213.46 152.55 210.88 152.55 209.24 150.92C207.6 149.3 207.55 146.67 209.12 145.01C210.73 143.31 213.67 143.31 215.26 145.01C216.82 146.67 216.75 149.29 215.11 150.92Z" fill="white"/>
<path d="M289 597.75C290.67 596.15 293.25 596.19 294.87 597.84C296.48 599.48 296.49 602.13 294.9 603.75C293.26 605.42 290.31 605.37 288.76 603.66C287.23 601.97 287.34 599.36 289.01 597.76L289 597.75Z" fill="white"/>
<path d="M111.59 436.09C113.27 434.51 115.92 434.62 117.47 436.33C118.95 437.96 118.89 440.44 117.32 442.01C115.68 443.65 113.04 443.63 111.44 441.98C109.85 440.34 109.92 437.66 111.59 436.09Z" fill="white"/>
<path d="M85.18 371.63C86.76 373.32 86.64 375.95 84.91 377.51C83.27 378.99 80.79 378.93 79.23 377.38C77.62 375.76 77.64 373.08 79.29 371.49C80.95 369.88 83.6 369.95 85.18 371.63Z" fill="white"/>
<path d="M166.33 193.57C167.87 195.2 167.82 197.62 166.23 199.21C164.57 200.87 161.93 200.84 160.36 199.15C158.89 197.56 158.93 195 160.46 193.46C162.09 191.82 164.73 191.87 166.33 193.56V193.57Z" fill="white"/>
<path d="M450.77 565.28C452.36 563.64 455.09 563.64 456.66 565.28C458.18 566.86 458.16 569.35 456.61 570.95C455.03 572.58 452.63 572.66 450.97 571.15C449.25 569.58 449.15 566.94 450.76 565.28H450.77Z" fill="white"/>
<path d="M198.78 167.13C197.12 168.69 194.39 168.57 192.89 166.87C191.44 165.22 191.58 162.74 193.19 161.2C194.9 159.57 197.45 159.69 199.03 161.47C200.5 163.12 200.39 165.62 198.78 167.13Z" fill="white"/>
<path d="M246.28 571.27C244.69 572.91 242.3 572.98 240.65 571.43C238.95 569.83 238.92 567.15 240.58 565.56C242.14 564.06 244.76 564.08 246.28 565.6C247.83 567.15 247.83 569.66 246.28 571.26V571.27Z" fill="white"/>
<path d="M182.72 177.63C184.23 179.25 184.17 181.78 182.59 183.29C181.03 184.78 178.41 184.76 176.89 183.24C175.27 181.61 175.36 178.96 177.1 177.38C178.77 175.85 181.16 175.96 182.72 177.63Z" fill="white"/>
<path d="M79.34 323.12C80.83 321.57 83.36 321.52 84.95 323.01C86.6 324.56 86.7 326.92 85.19 328.57C83.62 330.28 80.97 330.37 79.38 328.77C77.89 327.27 77.87 324.65 79.35 323.11L79.34 323.12Z" fill="white"/>
<path d="M117.58 263.84C116.08 265.43 113.52 265.54 111.96 264.08C110.43 262.66 110.35 259.98 111.79 258.42C113.24 256.85 115.83 256.79 117.4 258.28C119.04 259.83 119.11 262.22 117.58 263.85V263.84Z" fill="white"/>
<path d="M263.64 112.8C265.14 114.37 265.08 116.96 263.52 118.41C261.97 119.85 259.28 119.78 257.85 118.27C256.39 116.71 256.49 114.15 258.07 112.65C259.69 111.11 262.09 111.17 263.64 112.8Z" fill="white"/>
<path d="M553.89 468.22C555.42 469.67 555.46 472.35 553.97 473.87C552.54 475.33 550.09 475.4 548.56 474.03C546.89 472.54 546.77 470.1 548.28 468.46C549.77 466.85 552.33 466.74 553.89 468.21V468.22Z" fill="white"/>
<path d="M360.78 64.12C362.28 65.7 362.18 68.2999 360.58 69.7199C359.05 71.0799 356.57 71.0299 355.14 69.6099C353.61 68.0999 353.64 65.5299 355.21 63.9999C356.81 62.4399 359.24 62.4899 360.78 64.1099V64.12Z" fill="white"/>
<path d="M133.36 452.61C134.78 454.12 134.73 456.53 133.24 457.99C131.67 459.54 129.13 459.44 127.67 457.78C126.28 456.2 126.42 453.83 127.98 452.41C129.53 451 131.93 451.08 133.36 452.6V452.61Z" fill="white"/>
<path d="M472.69 549.27C474.13 550.78 474.1 553.18 472.61 554.65C471.05 556.19 468.49 556.12 467.03 554.49C465.64 552.94 465.77 550.55 467.31 549.12C468.86 547.68 471.23 547.75 472.68 549.27H472.69Z" fill="white"/>
<path d="M84.85 361.04C83.34 362.49 80.96 362.46 79.47 360.98C77.98 359.49 77.98 357.12 79.45 355.61C81 354.02 83.54 354.05 85.02 355.67C86.42 357.2 86.34 359.61 84.84 361.05L84.85 361.04Z" fill="white"/>
<path d="M101.03 409.46C99.57 410.95 97.17 411 95.65 409.57C94.12 408.12 94.04 405.76 95.47 404.2C96.97 402.56 99.51 402.51 101.04 404.08C102.49 405.56 102.49 407.97 101.04 409.46H101.03Z" fill="white"/>
<path d="M84.92 339.39C86.37 340.84 86.38 343.3 84.94 344.77C83.48 346.26 81.09 346.26 79.58 344.77C78.06 343.27 78.05 340.95 79.57 339.44C81.07 337.93 83.45 337.91 84.92 339.38V339.39Z" fill="white"/>
<path d="M229.9 555.1C228.41 556.53 225.95 556.49 224.52 555.02C223.06 553.52 223.12 551.16 224.65 549.67C226.18 548.18 228.5 548.21 229.98 549.75C231.44 551.26 231.41 553.67 229.91 555.11L229.9 555.1Z" fill="white"/>
<path d="M247.3 129.12C248.74 130.65 248.6 133.03 246.99 134.46C245.47 135.82 243.31 135.72 241.89 134.22C240.52 132.77 240.53 130.48 241.91 129.07C243.33 127.63 245.92 127.65 247.3 129.12Z" fill="white"/>
<path d="M95.97 290.87C97.42 289.49 99.71 289.48 101.12 290.85C102.56 292.26 102.54 294.85 101.07 296.24C99.54 297.69 97.16 297.56 95.73 295.96C94.37 294.45 94.48 292.28 95.97 290.86V290.87Z" fill="white"/>
<path d="M418.78 581.74C420.26 580.3 422.4 580.29 423.88 581.72C425.4 583.19 425.42 585.64 423.93 587.07C422.55 588.39 420.11 588.4 418.73 587.09C417.24 585.68 417.26 583.22 418.78 581.74Z" fill="white"/>
<path d="M295.78 96.5699C297.18 97.9199 297.23 100.24 295.89 101.71C294.42 103.33 292.13 103.4 290.59 101.89C289.15 100.47 289.06 98.2299 290.39 96.7499C291.73 95.2499 294.33 95.1599 295.78 96.5699Z" fill="white"/>
<path d="M537.52 489.91C536.09 491.33 533.82 491.39 532.38 490.05C530.9 488.68 530.86 486.09 532.3 484.66C533.77 483.19 536.19 483.25 537.64 484.81C539.04 486.3 538.99 488.45 537.52 489.91Z" fill="white"/>
<path d="M133.49 247.67C131.95 249.1 129.57 248.96 128.15 247.35C126.8 245.83 126.92 243.67 128.43 242.25C129.89 240.88 132.19 240.89 133.58 242.27C135.01 243.7 134.97 246.29 133.49 247.66V247.67Z" fill="white"/>
<path d="M273.12 582.09C274.55 580.62 276.74 580.57 278.22 581.97C279.75 583.42 279.77 585.92 278.27 587.32C276.87 588.63 274.41 588.59 273.08 587.23C271.71 585.84 271.73 583.51 273.12 582.08V582.09Z" fill="white"/>
<path d="M483.52 533.18C484.96 531.71 487.15 531.67 488.62 533.07C490.14 534.52 490.16 537.02 488.66 538.42C487.25 539.73 484.8 539.68 483.47 538.32C482.1 536.92 482.13 534.6 483.52 533.17V533.18Z" fill="white"/>
<path d="M144.21 468.76C145.65 467.39 148 467.4 149.36 468.79C150.69 470.15 150.7 472.61 149.36 473.98C147.92 475.46 145.45 475.41 144.01 473.86C142.63 472.37 142.71 470.17 144.2 468.76H144.21Z" fill="white"/>
<path d="M328.15 85.5599C326.72 87.0299 324.53 87.0799 323.05 85.6799C321.52 84.2299 321.5 81.7299 323 80.3299C324.4 79.0199 326.86 79.0599 328.19 80.4199C329.56 81.8099 329.54 84.1399 328.15 85.5699V85.5599Z" fill="white"/>
<path d="M521.36 501.03C522.75 502.49 522.69 504.73 521.22 506.13C519.78 507.5 517.41 507.45 516.08 506.04C514.75 504.62 514.82 502.2 516.23 500.87C517.67 499.51 519.98 499.58 521.36 501.03Z" fill="white"/>
<path d="M499.75 517C501.17 515.54 503.4 515.51 504.85 516.93C506.28 518.33 506.32 520.64 504.94 522.06C503.59 523.45 501.17 523.49 499.77 522.14C498.37 520.78 498.36 518.42 499.75 517Z" fill="white"/>
<path d="M208.63 533.58C210.1 532.19 212.34 532.25 213.73 533.72C215.09 535.16 215.03 537.53 213.6 538.86C212.17 540.19 209.75 540.12 208.43 538.71C207.08 537.27 207.17 534.96 208.62 533.58H208.63Z" fill="white"/>
<path d="M391.37 598.01C392.74 599.3 392.84 601.45 391.59 602.88C390.24 604.43 388 604.55 386.53 603.15C385.16 601.85 385.05 599.69 386.28 598.27C387.57 596.78 389.93 596.66 391.37 598.01Z" fill="white"/>
<path d="M197.38 517.46C198.75 518.75 198.85 520.9 197.6 522.33C196.25 523.88 194.01 524 192.54 522.6C191.17 521.3 191.06 519.14 192.29 517.72C193.58 516.23 195.94 516.11 197.38 517.46Z" fill="white"/>
<path d="M165.29 485.03C166.68 486.38 166.75 488.46 165.46 489.89C164.11 491.38 161.8 491.47 160.38 490.09C158.97 488.72 158.98 486.36 160.41 484.99C161.78 483.69 163.93 483.71 165.29 485.03Z" fill="white"/>
<path d="M149.51 231.21C148.14 232.54 145.98 232.55 144.65 231.23C143.27 229.85 143.33 227.43 144.79 226.13C146.2 224.88 148.34 224.99 149.66 226.38C151 227.8 150.94 229.84 149.52 231.21H149.51Z" fill="white"/>
<path d="M225.84 145.58C227.19 144.14 229.23 144.04 230.67 145.34C232.17 146.7 232.24 149.01 230.82 150.41C229.51 151.71 227.25 151.72 225.92 150.44C224.57 149.14 224.53 146.98 225.84 145.58Z" fill="white"/>
<path d="M181.28 506.28C179.91 507.7 177.87 507.76 176.45 506.43C174.98 505.05 174.95 502.73 176.39 501.36C177.73 500.09 179.99 500.11 181.29 501.41C182.61 502.74 182.61 504.9 181.29 506.27L181.28 506.28Z" fill="white"/>
<path d="M116.74 420.42C118.18 421.76 118.26 423.81 116.93 425.23C115.62 426.63 113.45 426.74 112.07 425.47C110.75 424.26 110.67 421.92 111.89 420.57C113.15 419.19 115.35 419.12 116.74 420.42Z" fill="white"/>
<path d="M310.4 603.26C308.97 604.59 306.93 604.54 305.57 603.12C304.25 601.75 304.25 599.59 305.58 598.26C306.96 596.87 309.39 596.94 310.68 598.4C311.92 599.81 311.8 601.96 310.4 603.27V603.26Z" fill="white"/>
<path d="M165.67 210.11C167.07 211.46 167.08 213.55 165.69 214.92C164.34 216.26 162.11 216.25 160.84 214.9C159.68 213.67 159.67 211.47 160.82 210.21C162.07 208.84 164.3 208.8 165.67 210.11Z" fill="white"/>
<path d="M214.47 161.67C215.85 162.98 215.91 165.19 214.6 166.52C213.34 167.8 210.94 167.8 209.7 166.52C208.48 165.27 208.46 163.19 209.67 161.87C210.99 160.42 213.07 160.33 214.48 161.66L214.47 161.67Z" fill="white"/>
<path d="M117.14 275.07C118.37 276.39 118.32 278.39 117.04 279.68C115.69 281.03 113.46 281.01 112.21 279.63C111.04 278.35 111.09 276.19 112.3 274.96C113.62 273.63 115.85 273.68 117.14 275.07Z" fill="white"/>
<path d="M279.25 113.06C280.62 114.37 280.64 116.6 279.29 117.89C278.04 119.09 275.88 119.1 274.62 117.92C273.26 116.64 273.27 114.41 274.64 113.09C275.94 111.83 277.94 111.82 279.25 113.06Z" fill="white"/>
<path d="M371.82 64.36C373.13 63.11 375.13 63.12 376.43 64.38C377.79 65.7 377.79 67.93 376.43 69.21C375.17 70.4 373.01 70.39 371.76 69.2C370.42 67.91 370.45 65.68 371.82 64.36Z" fill="white"/>
<path d="M261.94 570.76C260.69 572.04 258.65 572.11 257.34 570.9C255.95 569.62 255.94 567.4 257.32 566.09C258.61 564.86 260.7 564.89 261.94 566.15C263.19 567.42 263.19 569.48 261.94 570.76Z" fill="white"/>
<path d="M193.66 177.97C194.95 176.72 196.98 176.71 198.26 177.97C199.61 179.29 199.56 181.51 198.15 182.77C196.82 183.96 194.73 183.88 193.53 182.59C192.32 181.29 192.38 179.22 193.65 177.98L193.66 177.97Z" fill="white"/>
<path d="M181.96 194.08C183.17 195.39 183.11 197.43 181.82 198.68C180.46 200 178.25 199.9 177.02 198.46C175.87 197.1 176.02 195.03 177.35 193.85C178.69 192.67 180.75 192.77 181.96 194.07V194.08Z" fill="white"/>
<path d="M435.23 565.92C436.51 564.61 438.48 564.58 439.78 565.87C441.06 567.13 441.09 569.17 439.84 570.44C438.6 571.69 436.51 571.72 435.25 570.5C433.98 569.27 433.97 567.22 435.23 565.93V565.92Z" fill="white"/>
<path d="M96.22 388.33C97.45 387.19 99.39 387.19 100.56 388.34C101.77 389.53 101.74 391.76 100.49 392.92C99.2 394.12 97.14 393.99 95.96 392.62C94.83 391.32 94.94 389.53 96.22 388.33Z" fill="white"/>
<path d="M311.52 101.38C310.29 102.63 308.43 102.64 307.18 101.41C305.98 100.22 305.95 98.2199 307.12 97.0299C308.25 95.8899 310.4 95.8799 311.54 96.9999C312.72 98.1599 312.71 100.17 311.52 101.38Z" fill="white"/>
<path d="M96.25 311.83C95.04 310.57 95.09 308.71 96.35 307.49C97.57 306.32 99.61 306.35 100.73 307.54C101.83 308.71 101.78 310.85 100.62 311.96C99.41 313.11 97.42 313.06 96.25 311.83Z" fill="white"/>
<path d="M128.36 441.18C127.16 439.92 127.22 438.05 128.49 436.84C129.71 435.68 131.76 435.72 132.87 436.92C133.97 438.1 133.9 440.24 132.73 441.34C131.51 442.49 129.53 442.42 128.36 441.18Z" fill="white"/>
<path d="M553.3 452.76C554.52 453.96 554.51 455.89 553.28 457.09C552.06 458.27 550.05 458.24 548.93 457.01C547.9 455.89 547.91 453.94 548.95 452.83C550.09 451.61 552.1 451.58 553.3 452.76Z" fill="white"/>
<path d="M245.63 550.24C246.79 551.46 246.73 553.47 245.49 554.59C244.35 555.62 242.41 555.6 241.31 554.55C240.1 553.4 240.1 551.4 241.31 550.2C242.53 548.99 244.46 549.01 245.64 550.25L245.63 550.24Z" fill="white"/>
<path d="M262.99 129.59C264.13 130.82 264.03 132.8 262.76 133.93C261.48 135.07 259.56 134.94 258.44 133.63C257.42 132.43 257.5 130.57 258.61 129.48C259.79 128.33 261.87 128.38 262.99 129.58V129.59Z" fill="white"/>
<path d="M343.9 80.85C345.07 82.04 345.02 84.03 343.78 85.2C342.53 86.38 340.6 86.3 339.46 85.02C338.4 83.85 338.43 82 339.52 80.87C340.67 79.69 342.74 79.67 343.9 80.84V80.85Z" fill="white"/>
<path d="M133.12 259C134.25 260.19 134.16 262.28 132.94 263.38C131.68 264.51 129.72 264.39 128.6 263.1C127.55 261.9 127.62 260.11 128.76 258.98C129.96 257.78 131.97 257.79 133.12 259Z" fill="white"/>
<path d="M455.73 554.15C454.55 555.23 452.75 555.18 451.62 554.05C450.42 552.83 450.47 550.88 451.74 549.74C452.9 548.69 454.75 548.74 455.85 549.84C457.04 551.04 456.99 553 455.73 554.15Z" fill="white"/>
<path d="M374.76 602.62C373.59 603.8 371.92 603.8 370.75 602.62C369.62 601.48 369.61 599.67 370.72 598.57C371.79 597.51 373.75 597.51 374.81 598.57C375.91 599.67 375.89 601.48 374.76 602.62Z" fill="white"/>
<path d="M294.06 582.57C295.13 583.72 295.07 585.51 293.92 586.64C292.75 587.79 291.04 587.8 289.88 586.64C288.66 585.43 288.69 583.48 289.96 582.37C291.11 581.36 293.03 581.45 294.06 582.56V582.57Z" fill="white"/>
<path d="M532.99 469.12C534.14 467.99 535.95 467.98 537.04 469.09C538.09 470.16 538.08 472.12 537.02 473.18C535.91 474.28 534.1 474.26 532.97 473.13C531.8 471.96 531.81 470.29 532.99 469.12Z" fill="white"/>
<path d="M407.24 582.37C408.32 583.49 408.25 585.31 407.1 586.42C405.91 587.58 404.24 587.54 403.09 586.34C401.98 585.18 402.01 583.37 403.14 582.29C404.24 581.25 406.19 581.29 407.23 582.37H407.24Z" fill="white"/>
<path d="M144.68 453.19C145.78 452.08 147.59 452.09 148.73 453.22C149.91 454.39 149.91 456.06 148.73 457.23C147.59 458.36 145.78 458.39 144.68 457.28C143.62 456.22 143.63 454.26 144.68 453.19Z" fill="white"/>
<path d="M467.84 533.81C468.83 532.71 470.92 532.67 471.97 533.73C472.99 534.76 473 536.51 472 537.61C470.94 538.76 469.34 538.88 468.17 537.89C466.95 536.86 466.79 534.96 467.84 533.81Z" fill="white"/>
<path d="M242.67 145.82C243.81 144.78 245.42 144.82 246.51 145.91C247.64 147.05 247.61 148.95 246.44 149.99C245.38 150.93 243.51 150.89 242.52 149.9C241.41 148.8 241.48 146.9 242.67 145.81V145.82Z" fill="white"/>
<path d="M145.06 242.93C146.07 241.88 147.82 241.83 148.94 242.82C150.2 243.93 150.26 245.66 149.09 246.86C148.04 247.93 146.31 248.02 145.2 247.06C144.08 246.09 144.01 244.02 145.06 242.93Z" fill="white"/>
<path d="M326.25 598.69C327.27 599.71 327.29 601.47 326.29 602.57C325.16 603.81 323.43 603.86 322.25 602.67C321.21 601.62 321.15 599.86 322.12 598.78C323.11 597.68 325.2 597.63 326.25 598.69Z" fill="white"/>
<path d="M229.25 534.1C230.31 535.09 230.37 536.85 229.4 537.98C228.3 539.25 226.56 539.34 225.36 538.19C224.28 537.16 224.18 535.43 225.13 534.31C226.09 533.17 228.15 533.07 229.25 534.1Z" fill="white"/>
<path d="M520.64 485.27C521.69 486.2 521.8 488.05 520.87 489.14C519.94 490.25 518.16 490.4 517.03 489.47C515.78 488.45 515.66 486.62 516.78 485.45C517.79 484.38 519.55 484.3 520.64 485.27Z" fill="white"/>
<path d="M160.86 473.29C159.88 472.24 159.9 470.43 160.92 469.41C162.03 468.3 163.94 468.39 164.97 469.59C165.95 470.73 165.83 472.39 164.71 473.41C163.61 474.4 161.86 474.35 160.86 473.29Z" fill="white"/>
<path d="M291.13 113.64C292.11 112.55 293.85 112.45 294.94 113.42C296.04 114.4 296.12 116.12 295.13 117.23C294.13 118.35 292.44 118.44 291.33 117.43C290.22 116.43 290.13 114.74 291.13 113.64Z" fill="white"/>
<path d="M116.34 408.68C115.28 409.71 113.57 409.69 112.54 408.62C111.49 407.54 111.52 405.86 112.6 404.82C113.66 403.79 115.39 403.81 116.41 404.87C117.43 405.93 117.4 407.65 116.34 408.68Z" fill="white"/>
<path d="M116.58 291.6C117.61 292.65 117.61 294.36 116.56 295.41C115.52 296.45 113.8 296.45 112.76 295.41C111.7 294.35 111.7 292.67 112.78 291.61C113.83 290.57 115.55 290.57 116.58 291.61V291.6Z" fill="white"/>
<path d="M226.37 162.25C227.37 161.18 229.1 161.11 230.18 162.11C231.25 163.1 231.31 164.84 230.31 165.92C229.29 167.02 227.6 167.08 226.51 166.05C225.42 165.03 225.36 163.33 226.38 162.25H226.37Z" fill="white"/>
<path d="M392.16 64.79C393.22 65.81 393.24 67.53 392.21 68.6C391.16 69.68 389.48 69.71 388.41 68.66C387.35 67.63 387.32 65.91 388.36 64.86C389.39 63.81 391.11 63.78 392.17 64.79H392.16Z" fill="white"/>
<path d="M410.25 51.1399C408.66 53.9299 407.42 54.6499 405.54 54.1599C403.82 53.7199 402.99 52.4599 402.81 49.6799C405.24 50.1599 407.59 50.6199 410.24 51.1399H410.25Z" fill="white"/>
<path d="M161.45 226.78C162.52 225.75 164.24 225.78 165.26 226.83C166.28 227.89 166.24 229.61 165.19 230.64C164.13 231.67 162.42 231.64 161.39 230.58C160.34 229.5 160.37 227.82 161.46 226.78H161.45Z" fill="white"/>
<path d="M484.16 517.74C485.17 516.63 486.86 516.55 487.96 517.56C489.06 518.57 489.14 520.26 488.14 521.36C487.15 522.44 485.42 522.53 484.33 521.55C483.24 520.57 483.16 518.83 484.16 517.74Z" fill="white"/>
<path d="M504.49 505.39C503.46 506.47 501.75 506.51 500.69 505.49C499.63 504.47 499.59 502.75 500.61 501.68C501.62 500.61 503.35 500.57 504.42 501.59C505.5 502.62 505.54 504.31 504.5 505.39H504.49Z" fill="white"/>
<path d="M212.95 518.05C214.05 519.06 214.12 520.75 213.12 521.85C212.13 522.93 210.39 523.01 209.31 522.03C208.23 521.05 208.15 519.31 209.15 518.22C210.16 517.12 211.85 517.04 212.95 518.05Z" fill="white"/>
<path d="M177.13 485.79C178.16 484.66 179.89 484.6 180.93 485.66C181.86 486.61 181.9 488.29 181.01 489.3C180.02 490.41 178.28 490.44 177.21 489.37C176.18 488.34 176.15 486.87 177.13 485.79Z" fill="white"/>
<path d="M177.75 210.61C178.77 209.65 180.37 209.64 181.36 210.59C182.41 211.59 182.4 213.42 181.34 214.43C180.26 215.46 178.54 215.35 177.54 214.19C176.6 213.1 176.69 211.61 177.75 210.62V210.61Z" fill="white"/>
<path d="M196.77 502C197.86 503.05 197.88 504.8 196.8 505.81C195.83 506.72 194.12 506.72 193.16 505.81C192.09 504.8 192.1 503.05 193.2 502C194.26 500.99 195.72 500.99 196.78 502H196.77Z" fill="white"/>
<path d="M194.12 194.62C195.06 193.73 196.82 193.73 197.75 194.62C198.8 195.64 198.73 197.38 197.59 198.39C196.51 199.34 195.03 199.26 194.06 198.19C193.12 197.17 193.15 195.54 194.13 194.61L194.12 194.62Z" fill="white"/>
<path d="M100.2 376.17C99.28 377.15 97.64 377.17 96.64 376.23C95.61 375.26 95.58 373.74 96.56 372.71C97.52 371.7 99.12 371.64 100.11 372.57C101.04 373.45 101.09 375.22 100.2 376.16V376.17Z" fill="white"/>
<path d="M213.89 182.1C212.85 183.12 211.39 183.12 210.35 182.1C209.35 181.12 209.3 179.53 210.23 178.53C211.19 177.49 213.09 177.5 214.05 178.53C214.97 179.54 214.9 181.12 213.9 182.1H213.89Z" fill="white"/>
<path d="M100.18 327.73C99.19 328.66 97.59 328.6 96.63 327.6C95.66 326.58 95.7 325.06 96.74 324.08C97.74 323.14 99.39 323.17 100.3 324.14C101.18 325.08 101.12 326.85 100.18 327.73Z" fill="white"/>
<path d="M274.07 566.58C275.13 565.61 276.62 565.67 277.61 566.72C278.57 567.73 278.56 569.34 277.59 570.3C276.58 571.3 274.68 571.23 273.78 570.15C272.9 569.1 273.03 567.53 274.07 566.58Z" fill="white"/>
<path d="M327.32 100.91C326.34 101.94 324.82 101.98 323.8 101C322.8 100.04 322.74 98.4399 323.68 97.4499C324.57 96.5099 326.33 96.4599 327.27 97.3499C328.24 98.2599 328.26 99.9099 327.32 100.91Z" fill="white"/>
<path d="M278.7 133.32C277.74 134.34 276.12 134.35 275.16 133.32C274.28 132.39 274.28 130.9 275.16 129.97C276.09 128.98 277.79 128.97 278.72 129.97C279.6 130.9 279.59 132.39 278.71 133.32H278.7Z" fill="white"/>
<path d="M359.6 81.19C360.52 82.06 360.59 83.56 359.76 84.54C358.85 85.62 357.25 85.71 356.23 84.74C355.22 83.78 355.22 82.13 356.23 81.18C357.14 80.33 358.7 80.33 359.61 81.18L359.6 81.19Z" fill="white"/>
<path d="M342.18 602.37C341.24 603.36 339.54 603.35 338.62 602.36C337.75 601.43 337.76 599.94 338.65 599.01C339.62 597.99 341.24 598 342.19 599.02C343.07 599.95 343.06 601.45 342.18 602.37Z" fill="white"/>
<path d="M358.26 602.45C357.34 603.3 355.78 603.29 354.88 602.43C353.89 601.48 353.91 599.83 354.93 598.87C355.97 597.9 357.55 598 358.46 599.1C359.28 600.08 359.18 601.58 358.25 602.45H358.26Z" fill="white"/>
<path d="M419.62 566.49C420.53 565.56 421.98 565.51 422.96 566.36C424.01 567.28 424.08 568.92 423.11 569.91C422.22 570.81 420.7 570.87 419.75 570.04C418.71 569.13 418.65 567.49 419.63 566.49H419.62Z" fill="white"/>
<path d="M128.93 421.22C129.84 420.31 131.33 420.32 132.26 421.25C133.22 422.2 133.21 423.61 132.24 424.56C131.3 425.48 129.81 425.49 128.91 424.58C128.02 423.67 128.03 422.13 128.93 421.23V421.22Z" fill="white"/>
<path d="M132.42 275.56C133.42 276.46 133.5 277.88 132.59 278.87C131.71 279.83 130.19 279.92 129.25 279.07C128.32 278.23 128.25 276.67 129.09 275.72C129.95 274.75 131.43 274.69 132.42 275.57V275.56Z" fill="white"/>
<path d="M549.65 437.2C550.47 436.37 551.86 436.3 552.71 437.03C553.59 437.79 553.65 439.49 552.82 440.33C551.96 441.21 550.41 441.16 549.56 440.22C548.75 439.32 548.78 438.06 549.64 437.2H549.65Z" fill="white"/>
<path d="M309.78 583.04C310.6 583.96 310.44 585.5 309.45 586.3C308.51 587.05 307.25 586.94 306.44 586.03C305.66 585.16 305.68 583.77 306.48 582.97C307.31 582.13 309.01 582.17 309.78 583.04Z" fill="white"/>
<path d="M261.29 550.67C262.15 551.57 262.08 553.1 261.12 553.97C260.2 554.81 258.97 554.8 258.06 553.94C257.11 553.04 257.06 551.55 257.96 550.65C258.82 549.79 260.45 549.8 261.29 550.67Z" fill="white"/>
<path d="M96.79 340.62C97.57 339.74 98.95 339.67 99.83 340.47C100.71 341.26 100.78 342.63 99.99 343.51C99.21 344.38 97.8 344.47 96.93 343.7C96.1 342.96 96.03 341.47 96.78 340.63L96.79 340.62Z" fill="white"/>
<path d="M99.9 356.73C100.74 357.58 100.73 358.92 99.88 359.77C99.04 360.6 97.65 360.6 96.83 359.77C96.03 358.96 96.04 357.5 96.85 356.7C97.68 355.88 99.07 355.89 99.9 356.73Z" fill="white"/>
<path d="M148.28 437.52C149.13 438.37 149.13 439.7 148.28 440.56C147.45 441.4 146.06 441.42 145.23 440.59C144.42 439.79 144.42 438.33 145.23 437.52C146.06 436.69 147.45 436.69 148.28 437.52Z" fill="white"/>
<path d="M262.31 146.41C263.11 147.29 263.05 148.66 262.18 149.45C261.34 150.21 259.86 150.15 259.11 149.32C258.33 148.46 258.41 147.05 259.28 146.26C260.16 145.47 261.52 145.53 262.32 146.41H262.31Z" fill="white"/>
<path d="M438.99 553.59C438.11 554.37 436.74 554.3 435.95 553.42C435.16 552.54 435.23 551.16 436.11 550.38C436.96 549.63 438.44 549.7 439.18 550.54C439.95 551.4 439.86 552.82 438.98 553.6L438.99 553.59Z" fill="white"/>
<path d="M148.58 259.56C149.43 260.4 149.44 261.74 148.61 262.6C147.78 263.45 146.39 263.47 145.56 262.65C144.74 261.85 144.73 260.4 145.54 259.58C146.36 258.74 147.75 258.73 148.59 259.56H148.58Z" fill="white"/>
<path d="M390.41 582.8C391.29 583.57 391.37 584.95 390.58 585.84C389.79 586.73 388.42 586.82 387.54 586.04C386.67 585.27 386.57 583.85 387.34 582.98C388.07 582.15 389.57 582.06 390.41 582.8Z" fill="white"/>
<path d="M116.16 308.25C116.95 309.1 116.86 310.54 115.97 311.28C115.14 311.97 113.93 311.89 113.16 311.09C112.3 310.2 112.39 308.9 113.35 308.1C114.2 307.39 115.43 307.45 116.16 308.24V308.25Z" fill="white"/>
<path d="M310.79 113.93C311.55 114.69 311.57 115.91 310.84 116.74C310.02 117.67 308.69 117.71 307.84 116.83C307.08 116.05 307.04 114.81 307.75 114.01C308.53 113.14 309.96 113.1 310.79 113.92V113.93Z" fill="white"/>
<path d="M244.99 534.8C245.72 535.62 245.7 536.86 244.95 537.62C244.13 538.45 242.69 538.42 241.91 537.56C241.12 536.69 241.25 535.33 242.21 534.56C243.08 533.86 244.24 533.96 244.99 534.8Z" fill="white"/>
<path d="M404.99 65.2299C405.82 64.4099 407.25 64.4499 408.03 65.3199C408.74 66.1199 408.69 67.3499 407.92 68.1299C407.06 69.0099 405.73 68.9699 404.92 68.0399C404.2 67.2199 404.23 65.9699 404.99 65.2199V65.2299Z" fill="white"/>
<path d="M161.52 453.83C162.29 453.06 163.6 453.02 164.34 453.76C165.06 454.47 165.07 455.89 164.37 456.62C163.65 457.37 162.32 457.37 161.54 456.62C160.71 455.82 160.7 454.65 161.51 453.84L161.52 453.83Z" fill="white"/>
<path d="M536.47 453.66C537.24 454.52 537.15 455.67 536.27 456.43C535.43 457.15 534.14 457.08 533.46 456.28C532.79 455.48 532.88 454.11 533.66 453.44C534.47 452.73 535.73 452.83 536.47 453.67V453.66Z" fill="white"/>
<path d="M164.79 246.25C164.1 247.02 162.77 247.07 161.97 246.34C161.11 245.56 161.07 244.4 161.86 243.56C162.62 242.75 163.89 242.68 164.67 243.4C165.42 244.09 165.48 245.49 164.79 246.25Z" fill="white"/>
<path d="M115.99 391.95C115.29 392.71 113.96 392.75 113.17 392.02C112.32 391.24 112.28 390.08 113.08 389.24C113.84 388.44 115.12 388.37 115.9 389.1C116.64 389.79 116.69 391.2 116 391.95H115.99Z" fill="white"/>
<path d="M245.98 162.65C246.71 163.41 246.66 164.7 245.87 165.47C245.04 166.27 243.87 166.25 243.09 165.41C242.36 164.63 242.37 163.29 243.12 162.58C243.86 161.89 245.28 161.92 245.98 162.65Z" fill="white"/>
<path d="M343.02 97.74C343.76 98.42 343.78 99.79 343.02 100.51C342.23 101.26 341.36 101.32 340.5 100.65C339.65 100 339.54 98.7 340.22 97.9C340.87 97.14 342.27 97.06 343.01 97.74H343.02Z" fill="white"/>
<path d="M520.16 469.84C520.93 470.64 520.89 471.84 520.04 472.57C519.2 473.29 518.31 473.22 517.49 472.59C516.71 471.98 516.7 470.53 517.39 469.81C518.09 469.08 519.44 469.1 520.16 469.85V469.84Z" fill="white"/>
<path d="M455.02 534.36C455.81 535.07 455.88 536.37 455.16 537.12C454.48 537.83 453 537.88 452.38 537.13C451.72 536.34 451.61 535.45 452.3 534.58C453 533.7 454.19 533.61 455.02 534.36Z" fill="white"/>
<path d="M228.66 521.41C227.94 522.1 226.53 522.05 225.86 521.31C225.17 520.53 225.26 519.23 226.1 518.56C226.95 517.88 227.82 517.91 228.62 518.65C229.39 519.35 229.39 520.72 228.66 521.42V521.41Z" fill="white"/>
<path d="M178.13 227.37C178.86 226.62 180.21 226.6 180.9 227.33C181.59 228.05 181.56 229.5 180.78 230.11C179.96 230.75 179.06 230.82 178.23 230.1C177.39 229.37 177.35 228.17 178.13 227.37Z" fill="white"/>
<path d="M229.75 178.95C230.45 179.72 230.35 181.03 229.52 181.7C228.67 182.39 227.8 182.35 227 181.62C226.23 180.92 226.23 179.55 226.96 178.85C227.68 178.16 229.09 178.21 229.75 178.94V178.95Z" fill="white"/>
<path d="M209.31 502.16C210.67 502.29 211.62 502.16 212.31 502.5C213.24 502.97 213.22 504.46 212.4 505.17C211.58 505.88 210.54 505.97 209.93 505.11C209.49 504.49 209.57 503.51 209.32 502.17L209.31 502.16Z" fill="white"/>
<path d="M196.98 489.25C195.62 489.07 194.67 489.18 194 488.8C193.1 488.29 193.19 486.81 194.02 486.13C194.88 485.41 195.92 485.45 196.49 486.29C196.91 486.91 196.79 487.9 196.98 489.26V489.25Z" fill="white"/>
<path d="M471.75 521.31C470.39 521.13 469.4 521.27 468.78 520.86C467.93 520.3 467.88 519.27 468.58 518.39C469.25 517.55 470.73 517.43 471.25 518.33C471.64 519 471.55 519.95 471.74 521.31H471.75Z" fill="white"/>
<path d="M500.73 485.7C502.1 485.81 503.04 485.66 503.73 486C504.66 486.47 504.65 487.95 503.85 488.67C503.03 489.42 502 489.46 501.38 488.63C500.93 488.03 501 487.04 500.73 485.7Z" fill="white"/>
<path d="M197.57 210.82C197.29 212.16 197.34 213.15 196.88 213.75C196.25 214.58 195.22 214.53 194.41 213.78C193.62 213.05 193.62 211.58 194.56 211.11C195.25 210.77 196.19 210.92 197.57 210.81V210.82Z" fill="white"/>
<path d="M213.78 194.62C213.65 195.99 213.79 196.93 213.44 197.62C212.96 198.55 211.48 198.53 210.77 197.73C210.03 196.9 210.01 195.87 210.84 195.25C211.45 194.8 212.44 194.87 213.78 194.61V194.62Z" fill="white"/>
<path d="M375.76 84.7999C374.4 84.5399 373.45 84.5899 372.79 84.1799C371.91 83.6299 372.09 82.1699 372.97 81.5199C373.86 80.8599 374.88 80.8999 375.41 81.8199C375.79 82.4699 375.62 83.4399 375.75 84.7999H375.76Z" fill="white"/>
<path d="M293.6 566.53C293.48 567.89 293.66 568.86 293.29 569.52C292.77 570.44 291.76 570.5 290.85 569.86C289.97 569.23 289.77 567.77 290.64 567.21C291.29 566.79 292.25 566.82 293.6 566.54V566.53Z" fill="white"/>
<path d="M294.91 133.36C293.55 133.2 292.6 133.31 291.91 132.94C290.99 132.44 291.05 130.97 291.89 130.27C292.73 129.57 293.77 129.52 294.36 130.39C294.78 131.02 294.69 132 294.91 133.35V133.36Z" fill="white"/>
<path d="M180.81 469.56C180.63 470.92 180.76 471.91 180.35 472.53C179.79 473.38 178.76 473.44 177.88 472.74C177.04 472.07 176.93 470.6 177.83 470.07C178.5 469.68 179.45 469.77 180.81 469.56Z" fill="white"/>
<path d="M129.2 291.6C130.57 291.97 131.52 291.99 132.11 292.45C132.84 293.02 132.71 293.95 132.02 294.66C131.32 295.38 130.02 295.47 129.6 294.66C129.25 293.97 129.36 293.04 129.19 291.61L129.2 291.6Z" fill="white"/>
<path d="M487.75 504.15C486.66 505.27 485.63 505.27 484.94 504.5C484.28 503.78 484.23 502.94 484.85 502.23C485.56 501.42 486.63 501.29 487.29 502.09C487.74 502.64 487.65 503.64 487.75 504.14V504.15Z" fill="white"/>
<path d="M406.8 569.8C405.56 569.63 404.7 569.73 404.13 569.38C403.3 568.87 403.38 567.93 403.9 567.16C404.39 566.43 405.93 566.34 406.35 567.09C406.69 567.7 406.62 568.54 406.8 569.8Z" fill="white"/>
<path d="M129.15 405.01C130.34 405.27 131.22 405.24 131.78 405.65C132.56 406.21 132.47 407.11 131.8 407.84C131.14 408.55 129.76 408.57 129.39 407.74C129.1 407.09 129.24 406.24 129.16 405.01H129.15Z" fill="white"/>
<path d="M113.18 324.21C114.41 324.54 115.36 324.53 115.78 325C116.09 325.34 115.96 326.49 115.6 326.95C114.97 327.75 113.96 327.58 113.45 326.76C113.13 326.25 113.29 325.44 113.18 324.21Z" fill="white"/>
<path d="M324.02 114.58C325.17 113.67 326.08 113.57 326.59 114.42C326.89 114.91 326.86 116.01 326.5 116.38C326.15 116.74 324.93 116.82 324.58 116.5C324.12 116.07 324.15 115.13 324.01 114.59L324.02 114.58Z" fill="white"/>
<path d="M274.1 550.88C275.33 550.95 276.13 550.78 276.65 551.08C277.49 551.57 277.66 552.58 276.89 553.23C276.45 553.6 275.3 553.76 274.95 553.45C274.47 553.04 274.46 552.09 274.1 550.88Z" fill="white"/>
<path d="M325.85 586.26C324.47 585.88 323.53 585.89 323.11 585.42C322.8 585.07 322.91 583.86 323.28 583.5C323.65 583.15 324.87 583.13 325.2 583.47C325.63 583.92 325.56 584.86 325.85 586.26Z" fill="white"/>
<path d="M145.62 275.62C146.85 275.95 147.8 275.94 148.22 276.41C148.53 276.75 148.4 277.9 148.04 278.36C147.41 279.16 146.4 278.99 145.89 278.17C145.57 277.66 145.73 276.85 145.62 275.62Z" fill="white"/>
<path d="M278.4 146.05C278.19 147.44 278.3 148.37 277.88 148.85C277.57 149.2 276.34 149.24 275.96 148.91C275.57 148.57 275.4 147.36 275.7 147C276.1 146.52 277.05 146.48 278.39 146.05H278.4Z" fill="white"/>
<path d="M164.69 259.53C164.52 260.72 164.65 261.64 164.27 261.98C163.89 262.32 162.86 262.32 162.36 262.03C161.63 261.61 161.59 260.68 162.3 260.15C162.79 259.79 163.55 259.8 164.7 259.53H164.69Z" fill="white"/>
<path d="M422.9 553.45C421.71 553.27 420.79 553.4 420.46 553.02C420.13 552.64 420.14 551.6 420.44 551.11C420.87 550.38 421.81 550.35 422.32 551.06C422.67 551.55 422.65 552.31 422.91 553.46L422.9 553.45Z" fill="white"/>
<path d="M552.64 421.05C552.45 422.24 552.55 423.14 552.18 423.44C551.76 423.78 550.9 423.59 550.24 423.63C550.21 422.95 549.93 422.1 550.24 421.65C550.51 421.26 551.45 421.32 552.65 421.05H552.64Z" fill="white"/>
<path d="M374.3 583.04C374.04 584.25 374.11 585.18 373.72 585.45C373.27 585.76 372.42 585.48 371.74 585.45C371.78 584.78 371.58 583.93 371.92 583.5C372.22 583.12 373.12 583.23 374.31 583.02L374.3 583.04Z" fill="white"/>
<path d="M148.18 421.29C148.04 422.49 148.19 423.4 147.82 423.75C147.45 424.1 146.43 424.13 145.92 423.86C145.18 423.47 145.1 422.54 145.79 421.99C146.27 421.61 147.03 421.6 148.18 421.29Z" fill="white"/>
<path d="M261.04 534.6C260.87 535.82 261 536.75 260.62 537.05C260.19 537.39 259.32 537.17 258.64 537.2C258.63 536.53 258.37 535.69 258.68 535.25C258.96 534.85 259.86 534.89 261.03 534.61L261.04 534.6Z" fill="white"/>
<path d="M259.25 162.51C260.43 162.76 261.36 162.69 261.67 163.09C261.98 163.49 261.9 164.51 261.58 165C261.1 165.73 260.17 165.65 259.7 164.94C259.37 164.44 259.44 163.67 259.24 162.51H259.25Z" fill="white"/>
<path d="M423.99 68.24C422.83 67.92 421.92 67.93 421.66 67.53C421.37 67.08 421.66 66.25 421.69 65.58C422.37 65.62 423.25 65.43 423.66 65.78C424.02 66.09 423.86 67.01 423.99 68.24Z" fill="white"/>
<path d="M180.81 243.69C180.61 244.65 180.68 245.4 180.33 245.79C179.75 246.44 178.83 246.38 178.44 245.56C178.23 245.12 178.4 244.21 178.75 243.89C179.09 243.58 179.87 243.75 180.82 243.69H180.81Z" fill="white"/>
<path d="M245.77 178.98C245.63 179.92 245.73 180.72 245.39 181.04C245.05 181.36 244.12 181.43 243.7 181.19C242.91 180.73 242.94 179.82 243.63 179.29C244.05 178.97 244.8 179.1 245.77 178.98Z" fill="white"/>
<path d="M196.9 229.95C195.96 229.8 195.16 229.9 194.84 229.55C194.53 229.21 194.47 228.27 194.73 227.85C195.2 227.07 196.11 227.1 196.63 227.8C196.94 228.22 196.8 228.97 196.9 229.94V229.95Z" fill="white"/>
<path d="M164.24 437.78C164.09 438.75 164.19 439.51 163.86 439.91C163.31 440.56 162.39 440.57 161.96 439.76C161.73 439.33 161.85 438.41 162.19 438.08C162.52 437.75 163.31 437.89 164.25 437.78H164.24Z" fill="white"/>
<path d="M115.87 373.22C115.67 374.18 115.74 374.93 115.39 375.32C114.81 375.97 113.89 375.91 113.5 375.09C113.29 374.65 113.46 373.74 113.81 373.42C114.15 373.11 114.93 373.28 115.88 373.22H115.87Z" fill="white"/>
<path d="M536.33 437.54C536.16 438.5 536.25 439.31 535.91 439.6C535.54 439.91 534.6 439.99 534.2 439.72C533.48 439.24 533.49 438.32 534.2 437.8C534.62 437.5 535.35 437.64 536.33 437.54Z" fill="white"/>
<path d="M244.85 521.12C243.87 521.07 243.15 521.24 242.7 520.97C241.93 520.5 241.9 519.59 242.62 519.08C243.02 518.8 243.95 518.8 244.32 519.09C244.68 519.38 244.63 520.18 244.84 521.12H244.85Z" fill="white"/>
<path d="M391.49 81.62C391.38 82.56 391.52 83.35 391.19 83.68C390.86 84.01 389.94 84.13 389.51 83.9C388.7 83.47 388.71 82.55 389.36 82C389.76 81.66 390.52 81.77 391.49 81.62Z" fill="white"/>
<path d="M356.69 97.8099C357.65 97.9899 358.41 97.9199 358.79 98.2699C359.44 98.8499 359.38 99.7599 358.57 100.16C358.13 100.37 357.22 100.22 356.9 99.8799C356.59 99.5399 356.76 98.7599 356.69 97.8199V97.8099Z" fill="white"/>
<path d="M177.84 454.16C178.73 454.2 179.49 454.03 179.67 454.28C179.95 454.69 180.01 455.43 179.83 455.9C179.74 456.13 178.65 456.3 178.43 456.08C178.08 455.72 178.07 455.02 177.83 454.16H177.84Z" fill="white"/>
<path d="M196.23 470.29C196.19 471.01 196.34 471.8 196.1 471.94C195.66 472.21 194.99 472.1 194.41 472.15C194.43 471.57 194.3 470.9 194.55 470.44C194.68 470.2 195.49 470.33 196.23 470.28V470.29Z" fill="white"/>
<path d="M210.14 486.44C211.01 486.66 211.7 486.65 212.07 486.99C212.3 487.2 212.16 488.29 211.93 488.39C211.46 488.58 210.72 488.54 210.31 488.27C210.06 488.1 210.2 487.33 210.14 486.44Z" fill="white"/>
<path d="M228.43 502.63C228.33 503.51 228.43 504.29 228.17 504.45C227.75 504.71 227.01 504.71 226.55 504.51C226.34 504.42 226.25 503.32 226.48 503.12C226.86 502.79 227.55 502.82 228.43 502.64V502.63Z" fill="white"/>
<path d="M307.07 567.16C307.94 567.38 308.63 567.37 309 567.71C309.23 567.92 309.09 569.01 308.86 569.11C308.39 569.3 307.65 569.26 307.24 568.99C306.98 568.82 307.13 568.05 307.07 567.16Z" fill="white"/>
<path d="M310.36 132.79C309.49 132.6 308.79 132.63 308.42 132.29C308.19 132.09 308.29 130.99 308.51 130.89C308.97 130.69 309.71 130.7 310.13 130.96C310.39 131.12 310.27 131.89 310.36 132.78V132.79Z" fill="white"/>
<path d="M213.15 213.85C212.28 213.66 211.58 213.69 211.21 213.35C210.98 213.15 211.08 212.05 211.3 211.95C211.76 211.75 212.5 211.76 212.92 212.02C213.18 212.18 213.06 212.95 213.15 213.84V213.85Z" fill="white"/>
<path d="M129.92 308.17C130.42 308.35 131.12 308.38 131.38 308.74C131.67 309.14 131.75 309.89 131.57 310.37C131.48 310.6 130.39 310.8 130.17 310.58C129.81 310.23 129.79 309.52 129.63 308.97C129.73 308.7 129.82 308.44 129.92 308.17Z" fill="white"/>
<path d="M517.83 453.96C518.57 454.01 519.39 453.87 519.52 454.1C519.77 454.56 519.63 455.23 519.65 455.81C519.08 455.76 518.41 455.87 517.97 455.61C517.73 455.46 517.87 454.68 517.83 453.96Z" fill="white"/>
<path d="M439.07 534.91C438.89 535.41 438.85 536.11 438.5 536.37C438.1 536.67 437.35 536.74 436.87 536.57C436.64 536.49 436.45 535.39 436.66 535.17C437.02 534.81 437.72 534.79 438.27 534.62C438.54 534.72 438.8 534.81 439.07 534.91Z" fill="white"/>
<path d="M227.2 195.52C227.93 195.52 228.71 195.32 228.86 195.55C229.15 195.98 229.08 196.66 229.16 197.23C228.58 197.23 227.92 197.41 227.45 197.19C227.21 197.07 227.29 196.26 227.2 195.53V195.52Z" fill="white"/>
<path d="M115.65 341.12C115.43 341.9 115.43 342.5 115.13 342.8C114.92 343.01 114 342.96 113.93 342.8C113.75 342.36 113.65 341.66 113.89 341.34C114.09 341.07 114.82 341.2 115.64 341.12H115.65Z" fill="white"/>
<path d="M487.45 488.37C486.67 488.24 486.08 488.3 485.73 488.04C485.5 487.87 485.45 486.96 485.61 486.86C486.01 486.62 486.74 486.42 487.04 486.63C487.34 486.83 487.28 487.56 487.45 488.37Z" fill="white"/>
<path d="M503.53 470.09C503.46 470.89 503.6 471.58 503.33 471.85C503.08 472.09 502.32 472.02 501.91 471.82C501.72 471.73 501.63 470.82 501.83 470.64C502.16 470.34 502.76 470.31 503.53 470.09Z" fill="white"/>
<path d="M471.07 502.44C470.87 503.22 470.86 503.82 470.57 504.15C470.39 504.35 469.49 504.3 469.39 504.12C469.18 503.71 469.07 502.95 469.31 502.7C469.58 502.42 470.27 502.53 471.07 502.44Z" fill="white"/>
<path d="M131.8 389.72C131.54 390.48 131.49 391.07 131.17 391.36C130.96 391.56 130.04 391.43 129.98 391.25C129.82 390.81 129.77 390.08 130.04 389.79C130.27 389.54 130.99 389.72 131.81 389.71L131.8 389.72Z" fill="white"/>
<path d="M292.25 146.67C293.01 146.93 293.6 146.98 293.89 147.3C294.08 147.51 293.96 148.43 293.78 148.49C293.34 148.65 292.61 148.7 292.32 148.44C292.07 148.21 292.25 147.5 292.24 146.68L292.25 146.67Z" fill="white"/>
<path d="M454.94 518.75C454.68 519.51 454.62 520.1 454.3 520.42C454.12 520.6 453.21 520.47 453.13 520.27C452.95 519.85 452.92 519.08 453.17 518.86C453.46 518.6 454.14 518.78 454.94 518.75Z" fill="white"/>
<path d="M342.62 114.32C342.51 115.14 342.61 115.87 342.34 116.06C342.01 116.29 341.31 116.17 340.88 115.97C340.72 115.9 340.71 114.98 340.93 114.77C341.24 114.48 341.84 114.5 342.63 114.31L342.62 114.32Z" fill="white"/>
<path d="M145.94 292.51C146.73 292.6 147.31 292.52 147.67 292.77C147.91 292.93 148 293.84 147.84 293.94C147.45 294.2 146.73 294.44 146.42 294.24C146.11 294.05 146.14 293.32 145.94 292.51Z" fill="white"/>
<path d="M388.01 567.22C388.82 567.38 389.54 567.32 389.75 567.62C389.96 567.92 389.77 568.65 389.53 569.05C389.43 569.21 388.52 569.17 388.35 568.95C388.09 568.6 388.14 568.01 388.01 567.22Z" fill="white"/>
<path d="M373.25 98.2C373.94 98.39 374.51 98.38 374.67 98.64C374.82 98.89 374.63 99.46 374.42 99.77C374.33 99.9 373.62 99.84 373.5 99.66C373.3 99.36 373.35 98.89 373.25 98.2Z" fill="white"/>
<path d="M115.27 357.19C115.24 357.95 115.38 358.51 115.16 358.73C114.95 358.94 114.35 358.89 113.99 358.76C113.85 358.71 113.75 358.01 113.9 357.84C114.14 357.57 114.6 357.49 115.26 357.2L115.27 357.19Z" fill="white"/>
<path d="M162.31 276.53C163.04 276.58 163.64 276.46 163.8 276.67C164 276.94 163.9 277.5 163.77 277.87C163.73 277.98 163.01 278.04 162.84 277.87C162.59 277.63 162.55 277.17 162.32 276.53H162.31Z" fill="white"/>
<path d="M292.81 551.45C292.66 552.13 292.69 552.73 292.46 552.86C292.18 553.02 291.63 552.86 291.29 552.68C291.17 552.62 291.21 551.88 291.39 551.75C291.67 551.54 292.14 551.57 292.81 551.45Z" fill="white"/>
<path d="M407.32 82.0499C407.15 82.7099 407.14 83.1799 406.91 83.4699C406.77 83.6399 406.06 83.6299 405.99 83.4999C405.81 83.1699 405.67 82.5599 405.84 82.3499C406.04 82.1099 406.61 82.1799 407.32 82.0599V82.0499Z" fill="white"/>
<path d="M439.63 65.75C439.52 66.43 439.55 66.9 439.34 67.2C439.22 67.38 438.51 67.42 438.42 67.29C438.21 66.97 438.03 66.39 438.19 66.15C438.36 65.9 438.94 65.91 439.63 65.74V65.75Z" fill="white"/>
<path d="M551.99 407.28C551.32 407.09 550.73 407.08 550.62 406.84C550.48 406.55 550.65 406.01 550.86 405.68C550.94 405.56 551.67 405.63 551.79 405.82C551.98 406.11 551.91 406.58 551.99 407.27V407.28Z" fill="white"/>
<path d="M277.76 163.17C277.59 163.83 277.58 164.3 277.35 164.59C277.21 164.76 276.5 164.75 276.43 164.62C276.25 164.29 276.11 163.68 276.29 163.47C276.49 163.23 277.06 163.3 277.77 163.18L277.76 163.17Z" fill="white"/>
<path d="M341.28 583.72C341.13 584.4 341.16 585 340.93 585.13C340.65 585.29 340.1 585.13 339.76 584.95C339.64 584.89 339.68 584.16 339.86 584.02C340.14 583.81 340.61 583.84 341.28 583.72Z" fill="white"/>
<path d="M357.54 585.28C356.82 585.2 356.25 585.28 356.04 585.06C355.85 584.85 355.98 584.24 356.14 583.9C356.21 583.76 356.92 583.73 357.06 583.89C357.3 584.16 357.33 584.63 357.53 585.28H357.54Z" fill="white"/>
<path d="M147.6 407.64C146.95 407.42 146.48 407.38 146.22 407.13C146.06 406.98 146.11 406.27 146.25 406.21C146.6 406.05 147.21 405.94 147.42 406.13C147.65 406.34 147.54 406.91 147.61 407.64H147.6Z" fill="white"/>
<path d="M163.79 423.39C163.16 423.36 162.72 423.47 162.57 423.31C162.4 423.13 162.44 422.69 162.52 422.39C162.55 422.29 163.09 422.19 163.22 422.3C163.44 422.48 163.51 422.83 163.79 423.39Z" fill="white"/>
<path d="M179.89 438.37C179.67 438.94 179.63 439.3 179.42 439.5C179.3 439.62 178.76 439.58 178.72 439.47C178.6 439.19 178.52 438.74 178.67 438.56C178.81 438.38 179.26 438.45 179.89 438.36V438.37Z" fill="white"/>
<path d="M195.96 454.43C195.81 455.02 195.83 455.47 195.63 455.6C195.43 455.73 194.99 455.6 194.73 455.45C194.64 455.4 194.65 454.85 194.77 454.76C195.01 454.59 195.37 454.58 195.96 454.43Z" fill="white"/>
<path d="M358.63 114.73C358.41 115.3 358.36 115.65 358.15 115.86C358.04 115.98 357.5 115.93 357.46 115.83C357.35 115.54 357.25 115.09 357.4 114.9C357.54 114.72 358 114.8 358.62 114.73H358.63Z" fill="white"/>
<path d="M244.14 502.97C244.06 503.61 244.14 504.08 243.96 504.21C243.76 504.36 243.32 504.26 243.03 504.15C242.94 504.11 242.9 503.58 243.02 503.45C243.22 503.25 243.57 503.2 244.15 502.97H244.14Z" fill="white"/>
<path d="M226.57 488.24C226.79 487.67 226.84 487.32 227.05 487.11C227.16 486.99 227.7 487.04 227.74 487.14C227.85 487.43 227.95 487.88 227.8 488.07C227.66 488.25 227.2 488.17 226.58 488.24H226.57Z" fill="white"/>
<path d="M422.03 535.01C421.95 535.65 422.03 536.12 421.85 536.25C421.65 536.4 421.21 536.3 420.92 536.19C420.83 536.15 420.79 535.62 420.91 535.49C421.11 535.29 421.46 535.24 422.03 535.01Z" fill="white"/>
<path d="M405.82 551.22C405.74 551.86 405.82 552.33 405.64 552.46C405.44 552.61 405 552.52 404.71 552.4C404.62 552.36 404.57 551.82 404.7 551.7C404.9 551.5 405.25 551.45 405.82 551.22Z" fill="white"/>
<path d="M212.67 228.07C212.39 228.63 212.32 228.98 212.1 229.16C211.97 229.27 211.43 229.17 211.4 229.08C211.32 228.79 211.28 228.35 211.45 228.17C211.6 228.01 212.04 228.11 212.67 228.08V228.07Z" fill="white"/>
<path d="M228.8 211.79C228.78 212.42 228.88 212.86 228.72 213.01C228.54 213.18 228.1 213.15 227.8 213.07C227.7 213.04 227.6 212.51 227.71 212.37C227.89 212.15 228.24 212.07 228.8 211.79Z" fill="white"/>
<path d="M243.75 195.72C244.34 195.87 244.79 195.85 244.92 196.05C245.05 196.25 244.91 196.69 244.76 196.95C244.71 197.04 244.16 197.03 244.07 196.91C243.9 196.67 243.89 196.31 243.74 195.72H243.75Z" fill="white"/>
<path d="M261.45 180.86C260.82 180.77 260.36 180.83 260.23 180.66C260.08 180.45 260.17 180.02 260.28 179.73C260.32 179.64 260.86 179.59 260.98 179.71C261.18 179.91 261.22 180.27 261.44 180.86H261.45Z" fill="white"/>
<path d="M196.23 244.03C196.16 244.66 196.23 245.12 196.06 245.25C195.87 245.4 195.42 245.31 195.13 245.19C195.03 245.15 194.98 244.62 195.1 244.5C195.31 244.3 195.66 244.24 196.23 244.02V244.03Z" fill="white"/>
<path d="M325 567.62C324.85 568.23 324.86 568.68 324.67 568.81C324.47 568.94 324.03 568.81 323.77 568.66C323.67 568.61 323.69 568.07 323.82 567.96C324.05 567.78 324.4 567.78 325 567.62Z" fill="white"/>
<path d="M178.7 260.33C179.31 260.48 179.76 260.46 179.88 260.66C180.01 260.86 179.88 261.3 179.73 261.56C179.68 261.66 179.14 261.64 179.03 261.51C178.85 261.28 178.85 260.93 178.7 260.33Z" fill="white"/>
<path d="M130.14 325.04C130.72 325.26 131.08 325.31 131.28 325.51C131.4 325.63 131.35 326.18 131.25 326.21C130.96 326.32 130.53 326.4 130.32 326.25C130.15 326.12 130.21 325.67 130.13 325.04H130.14Z" fill="white"/>
<path d="M146.35 308.83C146.93 309.05 147.29 309.1 147.49 309.3C147.61 309.42 147.56 309.97 147.46 310C147.17 310.11 146.74 310.19 146.53 310.04C146.36 309.91 146.42 309.46 146.34 308.83H146.35Z" fill="white"/>
<path d="M276.36 536.91C275.8 536.64 275.45 536.56 275.27 536.34C275.16 536.21 275.26 535.67 275.36 535.64C275.65 535.56 276.09 535.52 276.27 535.69C276.43 535.84 276.33 536.28 276.36 536.91Z" fill="white"/>
<path d="M310.04 147.17C309.82 147.74 309.77 148.09 309.56 148.3C309.45 148.42 308.91 148.37 308.87 148.27C308.76 147.98 308.66 147.53 308.81 147.34C308.95 147.16 309.41 147.24 310.03 147.17H310.04Z" fill="white"/>
<path d="M326.25 130.97C326.03 131.54 325.98 131.89 325.77 132.1C325.66 132.22 325.12 132.17 325.08 132.07C324.97 131.78 324.87 131.33 325.02 131.14C325.16 130.96 325.62 131.04 326.24 130.97H326.25Z" fill="white"/>
<path d="M260.37 519.2C260.22 519.81 260.23 520.26 260.04 520.39C259.84 520.52 259.4 520.39 259.14 520.24C259.04 520.19 259.06 519.65 259.19 519.54C259.42 519.36 259.77 519.36 260.37 519.2Z" fill="white"/>
<path d="M535.89 421.99C535.65 422.56 535.59 422.92 535.38 423.11C535.25 423.23 534.71 423.18 534.68 423.08C534.57 422.79 534.49 422.34 534.65 422.15C534.78 421.98 535.25 422.06 535.89 421.99Z" fill="white"/>
<path d="M411.17 678.42C330.64 678.42 254.92 647.06 197.98 590.11C141.03 533.16 109.67 457.45 109.67 376.92C109.67 296.39 141.03 220.67 197.98 163.73C254.93 106.78 330.64 75.42 411.17 75.42C491.7 75.42 567.42 106.78 624.36 163.73C681.31 220.68 712.67 296.39 712.67 376.92C712.67 457.45 681.31 533.17 624.36 590.11C567.41 647.06 491.7 678.42 411.17 678.42ZM411.17 78.42C331.44 78.42 256.48 109.47 200.1 165.85C143.72 222.23 112.67 297.19 112.67 376.92C112.67 456.65 143.72 531.61 200.1 587.99C256.48 644.37 331.44 675.42 411.17 675.42C490.9 675.42 565.86 644.37 622.24 587.99C678.62 531.61 709.67 456.65 709.67 376.92C709.67 297.19 678.62 222.23 622.24 165.85C565.86 109.47 490.9 78.42 411.17 78.42Z" fill="white"/>
<path d="M3 349.15H0C0 255.89 36.32 168.21 102.26 102.26C168.2 36.31 255.89 0 349.15 0V3C256.69 3 169.76 39.01 104.38 104.38C39.01 169.76 3 256.69 3 349.15Z" fill="white"/>
</g>
<defs>
<clipPath id="clip0_2004_2376">
<rect width="712.67" height="678.42" fill="white"/>
</clipPath>
</defs>
</svg>
