<svg width="37" height="38" viewBox="0 0 37 38" fill="none" xmlns="http://www.w3.org/2000/svg">
<g clip-path="url(#clip0_2019_2058)">
<path d="M23.55 18.6C23.55 20.21 20.79 21.58 16.82 22.19C16.29 22.27 15.73 22.34 15.15 22.38C14.52 22.45 13.87 22.49 13.2 22.5C12.9 22.52 12.59 22.52 12.28 22.52C10.66 22.52 9.12 22.4 7.73 22.19C3.77 21.58 1 20.21 1 18.6C1 16.44 6.05 14.69 12.28 14.69C12.59 14.69 12.9 14.69 13.2 14.71C13.4 14.71 13.59 14.72 13.79 14.73C17.03 14.87 19.84 15.5 21.6 16.4C22.18 16.69 22.64 17.02 22.97 17.36C23.35 17.75 23.55 18.17 23.55 18.6Z" stroke="#222A32" stroke-width="2" stroke-miterlimit="10"/>
<path d="M35.75 5.85C35.75 7.66 33.44 9.24 30.02 10.08H30.01C28.38 10.47 26.49 10.7 24.48 10.7C22.47 10.7 20.58 10.47 18.94 10.08H18.93C15.51 9.24 13.2 7.66 13.2 5.85C13.2 3.17 18.25 1 24.48 1C30.71 1 35.75 3.17 35.75 5.85Z" stroke="#222A32" stroke-width="2" stroke-miterlimit="10"/>
<path d="M35.75 13.48V20.18C35.75 21.6 33.57 22.84 30.32 23.52C28.62 23.88 26.62 24.09 24.48 24.09C24.17 24.09 23.86 24.09 23.55 24.07V18.6C23.55 18.17 23.35 17.75 22.97 17.36C23.46 17.39 23.97 17.4 24.48 17.4C26.62 17.4 28.62 17.19 30.32 16.83C33.57 16.14 35.75 14.9 35.75 13.48Z" stroke="#222A32" stroke-width="2" stroke-miterlimit="10"/>
<path d="M35.75 20.18V26.87C35.75 29.03 30.7 30.78 24.48 30.78C24.17 30.78 23.86 30.78 23.55 30.76V24.07C23.86 24.09 24.17 24.09 24.48 24.09C26.62 24.09 28.62 23.88 30.32 23.52C33.57 22.84 35.75 21.6 35.75 20.18Z" stroke="#222A32" stroke-width="2" stroke-miterlimit="10"/>
<path d="M35.75 5.85001V13.48C35.75 14.9 33.57 16.14 30.32 16.83C28.62 17.19 26.62 17.4 24.48 17.4C23.97 17.4 23.46 17.39 22.97 17.36C22.64 17.02 22.18 16.69 21.6 16.4C19.84 15.5 17.03 14.87 13.79 14.73C13.59 14.72 13.4 14.71 13.2 14.71V5.85001C13.2 7.66001 15.51 9.24001 18.93 10.08H18.94C20.58 10.47 22.47 10.7 24.48 10.7C26.49 10.7 28.38 10.47 30.01 10.08H30.02C33.44 9.24001 35.75 7.66001 35.75 5.85001Z" stroke="#222A32" stroke-width="2" stroke-miterlimit="10"/>
<path d="M23.55 25.77V33.07C23.55 35.23 18.51 36.99 12.28 36.99C6.05 36.99 1 35.23 1 33.07V25.77C1 27.44 4.03 28.87 8.28 29.42C9.52 29.59 10.87 29.68 12.28 29.68C13.59 29.68 14.84 29.6 16.01 29.45C16.1 29.45 16.18 29.44 16.27 29.42C20.53 28.87 23.55 27.44 23.55 25.77Z" stroke="#222A32" stroke-width="2" stroke-miterlimit="10"/>
<path d="M23.55 18.6V25.77C23.55 27.44 20.53 28.87 16.27 29.42C16.18 29.44 16.1 29.45 16.01 29.45C14.84 29.6 13.59 29.68 12.28 29.68C10.87 29.68 9.52 29.59 8.28 29.42C4.03 28.87 1 27.44 1 25.77V18.6C1 20.21 3.77 21.58 7.73 22.19C9.12 22.4 10.66 22.52 12.28 22.52C12.59 22.52 12.9 22.52 13.2 22.5C13.87 22.5 14.52 22.45 15.15 22.38C15.73 22.34 16.29 22.27 16.82 22.19C20.79 21.58 23.55 20.21 23.55 18.6Z" stroke="#222A32" stroke-width="2" stroke-miterlimit="10"/>
</g>
<defs>
<clipPath id="clip0_2019_2058">
<rect width="36.75" height="37.99" fill="white"/>
</clipPath>
</defs>
</svg>
