<svg width="28" height="35" viewBox="0 0 28 35" fill="none" xmlns="http://www.w3.org/2000/svg">
<path d="M13.6364 34.093C13.568 34.093 13.5072 34.0854 13.4388 34.0703C11.1889 33.4702 6.90943 31.8448 3.59534 27.7356C1.87748 25.6088 0.676501 23.1631 0.0228039 20.4591C0.00760166 20.3983 0 20.3375 0 20.2768V6.18704C0 5.88322 0.182428 5.60978 0.46367 5.48825L13.2716 0.057441C13.4768 -0.0261099 13.7048 -0.0185138 13.9101 0.0802282L27.0448 6.60479C27.3033 6.73392 27.4629 6.99976 27.4629 7.28839V20.3451C27.4629 20.4211 27.4477 20.497 27.4249 20.573C26.6268 23.1327 24.9165 26.8469 21.3136 29.9687C19.1473 31.8448 16.6389 33.2272 13.8569 34.0627C13.7885 34.0855 13.7124 34.093 13.6364 34.093ZM1.52023 20.1856C2.12832 22.639 3.22288 24.8569 4.78111 26.7785C7.72275 30.4244 11.5005 31.9435 13.6212 32.5436C16.1144 31.7612 18.3643 30.508 20.3178 28.8141C23.6015 25.9658 25.1902 22.5858 25.9427 20.2236V7.75172L13.5452 1.59174L1.52023 6.68835V20.1856Z" fill="#2063FA"/>
<path d="M12.4735 21.2338C12.2682 21.2338 12.0706 21.1502 11.9262 21.0059L7.65434 16.6081C7.3655 16.3043 7.3655 15.8258 7.66955 15.5371C7.97359 15.2485 8.45246 15.2485 8.74131 15.5523L12.4431 19.3653L18.8888 12.2103C19.1701 11.8989 19.6489 11.8761 19.9606 12.1571C20.2722 12.4382 20.295 12.9167 20.0138 13.2281L13.0283 20.9831C12.8839 21.1427 12.6863 21.2338 12.4811 21.2338H12.4659H12.4735Z" fill="#2063FA"/>
</svg>
