<svg width="29" height="29" viewBox="0 0 29 29" fill="none" xmlns="http://www.w3.org/2000/svg">
<path d="M14.4878 28.9542C6.49897 28.9542 0 22.46 0 14.4771C0 6.49418 6.49897 0 14.4878 0C22.4766 0 28.9755 6.49418 28.9755 14.4771C28.9755 22.46 22.4766 28.9542 14.4878 28.9542ZM14.4878 1.51911C7.33509 1.51911 1.52023 7.32969 1.52023 14.4771C1.52023 21.6245 7.33509 27.4351 14.4878 27.4351C21.6404 27.4351 27.4553 21.6245 27.4553 14.4771C27.4553 7.32969 21.6404 1.51911 14.4878 1.51911Z" fill="#2063FA"/>
<path d="M14.4877 10.6566C15.5414 10.6566 16.3956 9.80303 16.3956 8.75011C16.3956 7.69719 15.5414 6.84363 14.4877 6.84363C13.434 6.84363 12.5798 7.69719 12.5798 8.75011C12.5798 9.80303 13.434 10.6566 14.4877 10.6566Z" fill="#2063FA"/>
<path d="M14.4878 22.1486C14.0697 22.1486 13.7277 21.8068 13.7277 21.389V12.4035C13.7277 11.9857 14.0697 11.6439 14.4878 11.6439C14.9058 11.6439 15.2479 11.9857 15.2479 12.4035V21.389C15.2479 21.8068 14.9058 22.1486 14.4878 22.1486Z" fill="#2063FA"/>
</svg>
