<svg width="257" height="50" viewBox="0 0 257 50" fill="none" xmlns="http://www.w3.org/2000/svg">
<g clip-path="url(#clip0_2004_7)">
<path d="M60.5975 40.5541C60.5975 41.1595 60.5869 41.6874 60.6006 42.2139C60.6142 42.7373 60.3852 43.0453 59.8545 43.0483C58.3137 43.059 56.7714 43.0772 55.2322 43.018C55.0123 43.0089 54.6665 42.6144 54.6241 42.3595C54.5316 41.7967 54.5953 41.2065 54.5953 40.5571C54.1236 40.5101 53.7051 40.4737 53.2881 40.4267C49.8305 40.0428 46.7353 38.8609 44.4651 36.1057C39.9717 30.653 41.4185 22.6681 47.4966 19.0527C49.3619 17.9437 51.394 17.4096 53.5307 17.2033C53.8552 17.1714 54.1798 17.1441 54.5953 17.1062C54.5953 16.5676 54.6074 16.0684 54.5922 15.5693C54.5756 15.0413 54.8121 14.7379 55.3399 14.7333C56.8564 14.7181 58.3713 14.7166 59.8878 14.7257C60.3185 14.7288 60.5915 14.9199 60.6082 15.413C60.6264 15.9774 60.5005 16.7436 60.8068 17.047C61.1374 17.3747 61.8987 17.2655 62.4719 17.3489C65.7385 17.8238 68.5409 19.165 70.7171 21.7123C74.5842 26.2396 73.976 33.4826 69.4357 37.3331C67.164 39.2584 64.5177 40.1612 61.6136 40.4616C61.3148 40.4919 61.0146 40.5162 60.6006 40.5541H60.5975ZM54.5437 35.8478V21.9232C50.387 21.8625 47.6892 24.6541 47.7301 28.9007C47.7695 33.1215 50.5402 35.9829 54.5437 35.8478ZM60.5945 35.8554C62.9724 35.7447 65.0318 35.071 66.2344 32.9652C67.7827 30.2555 67.7554 27.4381 66.157 24.7527C64.9393 22.7076 62.936 22.0021 60.593 21.8883V35.8554H60.5945Z" fill="#222A32"/>
<path d="M31.8069 33.7556C31.9055 40.9425 26.2217 47.5346 18.0478 47.4906C9.93455 47.4466 4.15217 40.9364 4.27197 33.7207C4.39026 26.6021 9.94517 20.23 18.16 20.1799C25.6515 20.1344 31.8615 26.3958 31.8084 33.7571L31.8069 33.7556ZM18.1145 26.7235C13.9305 26.7144 10.8187 29.7488 10.7929 33.8603C10.7686 37.8444 14.0367 41.0745 18.1054 41.0896C22.109 41.1048 25.3315 37.855 25.3421 33.7905C25.3527 29.8034 22.2121 26.7311 18.1145 26.722V26.7235Z" fill="#1973BF"/>
<path d="M81.7466 25.6144C81.8906 25.5735 81.9513 25.5765 81.9771 25.5477C86.0989 20.9673 93.4281 21.9975 96.0228 27.6125C97.9063 31.6877 97.8745 35.8007 95.5406 39.7408C92.729 44.4866 85.3573 44.6064 82.2485 40.9622C82.1697 40.8696 82.1317 40.7422 82.0756 40.6314C81.9968 40.6648 81.9179 40.6997 81.8391 40.7331C81.8391 41.4492 81.8391 42.1668 81.8391 42.8829C81.8391 44.9311 81.8209 46.9793 81.8527 49.0259C81.8633 49.7557 81.5888 50.0136 80.87 49.9909C79.7342 49.956 78.5968 49.9985 77.4594 50.0015C76.5344 50.003 76.4085 49.8847 76.407 48.9516C76.3979 41.3672 76.3949 33.7829 76.3888 26.1985C76.3888 25.5158 76.4055 24.8331 76.3842 24.1504C76.363 23.4949 76.6587 23.2492 77.3002 23.2643C78.4618 23.2916 79.6265 23.2992 80.7866 23.2613C81.5267 23.237 81.7921 23.5602 81.7511 24.2596C81.7253 24.7026 81.7466 25.1471 81.7466 25.6159V25.6144ZM91.7387 33.0926C91.44 31.9441 91.2716 30.7273 90.8061 29.6349C90.0569 27.8811 88.6163 26.9617 86.6767 26.9708C84.7234 26.9799 83.2418 27.875 82.4639 29.6577C81.4478 31.9835 81.3993 34.3837 82.4942 36.7095C83.3389 38.5074 84.8402 39.3919 86.8238 39.3266C88.7801 39.2629 90.2086 38.2844 90.9168 36.4744C91.3232 35.4351 91.4582 34.2896 91.7372 33.0926H91.7387Z" fill="#222A32"/>
<path d="M187.006 14.7773C187.285 14.7788 187.505 15.0185 187.478 15.2962C187.422 15.8727 187.281 16.5342 186.987 17.2215C186.751 17.7677 186.29 18.8084 185.226 19.5594C184.671 19.9509 184.149 20.1253 183.579 20.2816C181.057 20.975 179.901 20.6943 177.945 21.1145C176.705 21.38 175.473 21.644 174.345 22.5665C172.046 24.4432 171.734 27.7689 171.944 27.8538C172.048 27.8948 172.228 27.1423 173.02 26.2562C174.388 24.7254 176.244 24.3052 177.114 24.0973C179.007 23.6452 180.582 23.9031 181.344 24.0776C182.106 24.2521 184.906 24.9955 186.823 27.6794C188.053 29.4014 188.324 31.09 188.448 31.9214C188.565 32.7058 188.958 35.9373 186.997 39.0976C186.582 39.7667 185.682 41.1777 183.929 42.2351C182.134 43.3169 180.441 43.4261 179.09 43.5141C178.041 43.5824 176.239 43.6795 174.125 42.8845C173.403 42.6129 172.055 42.091 170.766 40.8317C169.347 39.4435 168.796 37.937 168.414 36.8522C167.492 34.2305 167.612 32.0261 167.759 29.7731C167.921 27.2758 168.047 25.3338 169.159 23.0323C169.87 21.5606 171.032 19.1544 173.456 18.0741C174.566 17.5795 176.371 17.1714 177.662 16.9711C177.945 16.9271 178.482 16.8498 179.439 16.698C181.501 16.3703 182.307 16.2034 182.83 15.5511C182.962 15.3872 183.051 15.2218 183.115 15.0762C183.189 14.9063 183.356 14.797 183.541 14.794C183.926 14.7879 184.314 14.7834 184.704 14.7803C185.481 14.7743 186.248 14.7728 187.009 14.7773H187.006ZM177.836 27.7446C176.244 28.0116 175.328 28.7732 174.958 29.1267C172.571 31.404 173.584 35.0908 173.682 35.4306C173.884 36.1194 174.233 37.2618 175.331 38.1524C175.589 38.3618 176.925 39.398 178.764 39.1598C180.96 38.8746 182.049 37.01 182.287 36.5639C182.819 35.5702 182.86 34.6553 182.894 33.8907C182.924 33.1973 182.966 31.8986 182.261 30.4952C181.987 29.9475 181.512 29.0038 180.416 28.3515C179.346 27.7158 178.288 27.7173 177.834 27.7446H177.836Z" fill="#18B653"/>
<path d="M219.626 25.8846C219.864 25.5902 220.21 25.1988 220.672 24.7877C220.958 24.5343 221.933 23.6331 223.214 23.1703C224.993 22.5271 226.916 22.7 228.863 23.3448C232.304 24.4842 234.119 27.1635 234.748 30.6091C235.29 33.5721 235.114 36.5184 233.546 39.2038C232.052 41.7633 229.821 43.1682 226.816 43.3154C226.047 43.3533 224.086 43.4595 222.019 42.3262C220.926 41.7269 220.061 40.9956 219.626 40.495C219.562 44.9236 219.649 48.1127 219.691 48.8728C219.699 48.9972 219.726 49.3947 219.479 49.6405C219.324 49.7937 219.08 49.8529 218.724 49.8499C217.564 49.8377 216.402 49.8832 215.242 49.9288C214.667 49.9515 214.435 49.7421 214.435 49.1368C214.444 40.9228 214.434 32.7088 214.435 24.4948C214.435 23.4298 214.517 23.3645 215.548 23.3539C216.584 23.3433 217.62 23.3479 218.655 23.3205C218.83 23.316 219.133 23.3145 219.335 23.5223C219.53 23.7241 219.531 24.026 219.518 24.1777C219.555 24.7467 219.591 25.3156 219.628 25.8831L219.626 25.8846ZM221.581 38.1964C222.703 39.1538 224.095 39.2934 224.176 39.3009C225.687 39.4329 226.825 38.7381 227.169 38.5059C229.981 36.611 229.407 32.2567 229.365 31.9609C229.239 31.0976 228.987 29.3786 227.525 28.1452C227.107 27.7917 225.703 26.7312 223.925 27.0225C222.688 27.2242 221.892 27.9813 221.602 28.262C219.118 30.6819 219.036 36.0238 221.582 38.198L221.581 38.1964Z" fill="#18B653"/>
<path d="M252.654 42.8586C252.584 42.8632 252.347 42.8707 252.132 42.7099C251.811 42.4702 251.821 42.0697 251.823 42.0317C251.823 38.1402 251.826 34.2486 251.826 30.3586C249.384 34.2911 246.941 38.2236 244.5 42.1546C244.48 42.2199 244.342 42.6568 243.914 42.8252C243.728 42.8981 243.556 42.8935 243.455 42.8798C242.075 42.8798 240.696 42.8814 239.316 42.8829C239.237 42.8783 238.857 42.8465 238.561 42.5248C238.247 42.1819 238.267 41.7693 238.271 41.698C238.268 36.0116 238.264 30.3267 238.261 24.6404C238.253 24.5676 238.182 23.8332 238.667 23.4767C238.738 23.4251 238.839 23.3675 238.977 23.3311C240.252 23.3417 241.526 23.3538 242.801 23.3644C242.972 23.3811 243.092 23.4388 243.168 23.4858C243.661 23.7908 243.617 24.5129 243.614 24.5509C243.625 28.2831 243.635 32.0169 243.646 35.7491C244.773 33.9816 245.899 32.1959 247.028 30.3905C248.323 28.318 249.593 26.2562 250.845 24.2065C250.889 24.0957 251.045 23.7528 251.428 23.5344C251.729 23.3629 252.015 23.3553 252.141 23.3599C253.931 23.3735 255.265 23.3766 255.99 23.3386C256.137 23.3311 256.506 23.3083 256.748 23.5404C256.912 23.6982 256.979 23.9501 256.979 24.3127C256.974 29.0129 256.994 33.7131 257.002 38.4133C257.003 39.6012 256.959 40.7892 256.991 41.9756C257 42.3018 256.939 42.5188 256.804 42.6538C256.585 42.8738 256.231 42.848 256.092 42.8389C255.43 42.7979 254.258 42.8131 252.654 42.8556V42.8586Z" fill="#18B653"/>
<path d="M113.223 40.9379C110.692 43.3973 107.668 43.8418 104.448 43.2865C100.18 42.5492 98.1034 38.0128 100.304 34.408C101.108 33.0926 102.348 32.3386 103.763 32.0018C105.424 31.6073 107.142 31.4511 108.836 31.1947C109.732 31.0596 110.637 30.9686 111.526 30.7896C112.351 30.6227 112.974 30.1842 113.042 29.2421C113.114 28.2604 112.868 27.3577 111.926 26.9435C110.231 26.1986 108.464 26.1455 106.826 27.0725C106.321 27.3577 105.969 28.0283 105.712 28.5957C105.536 28.9826 105.393 29.1723 104.975 29.1662C103.587 29.1465 102.198 29.1434 100.81 29.1313C100.293 29.1267 100.267 28.7839 100.314 28.397C100.465 27.1923 101.059 26.2092 101.875 25.3505C102.745 24.4356 103.796 23.7833 105.005 23.4298C108.502 22.4072 111.993 22.4178 115.393 23.7787C117.513 24.6268 118.503 26.3336 118.514 28.6109C118.532 32.5009 118.534 36.3925 118.584 40.2825C118.593 40.9531 118.769 41.6298 118.932 42.2867C119.054 42.7722 118.892 42.9634 118.435 42.9649C117.02 42.9694 115.605 42.9907 114.193 42.9391C113.958 42.93 113.626 42.6357 113.529 42.396C113.356 41.9666 113.328 41.4796 113.223 40.9364V40.9379ZM113.12 33.6737C111.45 33.9772 109.902 34.2366 108.366 34.5461C107.68 34.6842 106.961 34.8222 106.349 35.1363C104.653 36.0026 104.535 38.2965 106.085 39.304C107.578 40.2749 110.728 39.9958 111.97 38.7168C112.358 38.3178 112.742 37.7746 112.827 37.2497C113.026 36.0269 113.041 34.7752 113.12 33.6752V33.6737Z" fill="#222A32"/>
<path d="M128.08 30.3571H136.116C136.129 30.0461 136.152 29.7776 136.154 29.5106C136.158 27.7673 136.154 26.0241 136.163 24.2793C136.167 23.4039 136.293 23.2795 137.183 23.2719C138.395 23.2613 139.608 23.275 140.82 23.2583C141.414 23.2492 141.712 23.4843 141.71 24.1034C141.704 30.0916 141.701 36.0799 141.707 42.0682C141.707 42.669 141.471 42.9573 140.858 42.9542C139.545 42.9467 138.231 42.9512 136.918 42.9634C136.302 42.9694 136.16 42.6205 136.163 42.0849C136.173 39.9882 136.164 37.8899 136.163 35.7932C136.163 35.4913 136.163 35.1894 136.163 34.8176H128.08C128.08 35.1256 128.08 35.3972 128.08 35.6673C128.075 37.7898 128.057 39.9123 128.075 42.0348C128.08 42.6751 127.84 42.9694 127.191 42.9634C125.904 42.9497 124.615 42.9573 123.327 42.9618C122.752 42.9634 122.51 42.6675 122.511 42.1152C122.514 36.127 122.516 30.1387 122.517 24.1489C122.517 23.5723 122.746 23.2628 123.379 23.2719C124.641 23.2886 125.905 23.2795 127.167 23.2477C127.869 23.231 128.094 23.5632 128.088 24.2217C128.069 26.2411 128.08 28.2589 128.08 30.3571Z" fill="#222A32"/>
<path d="M197.132 34.622C196.898 34.622 196.71 34.8177 196.722 35.0513C196.73 35.1985 196.745 35.3608 196.772 35.5247C197.029 37.0373 198.089 37.9658 198.324 38.1706C199.623 39.3085 201.818 39.9108 203.665 38.9914C204.645 38.5044 205.219 37.7398 205.517 37.2497C205.591 37.1268 205.723 37.054 205.865 37.054H210.24C210.515 37.054 210.714 37.318 210.635 37.5805C210.35 38.5226 209.843 39.662 208.91 40.6922C205.727 44.209 199.034 44.8462 194.792 41.4356C190.737 38.1752 190.989 32.8742 191.013 32.4919C191.067 31.6316 191.345 29.0297 193.201 26.6432C194.031 25.5766 194.892 24.9166 195.311 24.6192C195.647 24.3795 197.412 23.1612 200.092 22.8184C201.196 22.6773 203.321 22.4345 205.658 23.5254C207.999 24.6192 209.182 26.411 209.635 27.118C210.739 28.8385 211.035 30.4619 211.184 31.3206C211.381 32.4661 211.388 33.4689 211.34 34.2366C211.326 34.4536 211.147 34.6235 210.93 34.6235C206.331 34.6356 201.73 34.6098 197.13 34.622H197.132ZM201.022 26.9056C200.74 26.9208 199.094 27.0376 197.876 28.4365C197.217 29.192 196.956 30.0082 196.85 30.5559C196.801 30.8078 196.992 31.043 197.249 31.046C198.864 31.0627 200.495 31.0672 202.145 31.0627C203.166 31.0596 204.181 31.0505 205.189 31.0399C205.438 31.0369 205.626 30.8154 205.591 30.5696C205.514 30.0265 205.297 29.2132 204.683 28.4592C203.343 26.8176 201.284 26.895 201.023 26.9102L201.022 26.9056Z" fill="#18B653"/>
<path d="M158.107 35.6263C155.692 36.5958 153.354 36.8522 150.958 36.5321C147.277 36.0405 145.236 33.786 145.13 30.0659C145.075 28.1466 145.103 26.2244 145.107 24.3036C145.109 23.4631 145.294 23.2902 146.137 23.2811C147.35 23.2689 148.563 23.2811 149.775 23.2537C150.46 23.2386 150.712 23.5253 150.698 24.2096C150.668 25.8269 150.682 27.4457 150.698 29.063C150.726 31.5997 151.877 32.7664 154.412 32.6344C155.419 32.5813 156.417 32.2142 157.403 31.9305C157.938 31.7757 158.141 31.3661 158.131 30.7668C158.093 28.6701 158.111 26.5703 158.117 24.4736C158.12 23.363 158.213 23.2795 159.349 23.2735C160.51 23.2674 161.673 23.2795 162.835 23.2598C163.451 23.2492 163.696 23.5359 163.696 24.1337C163.689 30.1493 163.686 36.1664 163.69 42.182C163.69 42.7252 163.452 42.9709 162.917 42.9694C161.578 42.9634 160.239 42.9603 158.9 42.9679C158.31 42.9709 158.111 42.6721 158.114 42.1122C158.125 40.2673 158.111 38.4225 158.107 36.5761C158.107 36.306 158.107 36.0359 158.107 35.6293V35.6263Z" fill="#222A32"/>
<path d="M24.6824 7.03057C23.219 8.11838 22.1089 9.12275 21.3461 9.8601C20.1344 11.0329 19.1972 12.1207 17.9583 13.559C17.3077 14.3145 16.7815 14.9487 16.4281 15.3796C16.1248 14.2098 15.3529 10.605 17.1287 6.7772C17.5427 5.88662 18.7104 3.45307 21.384 1.80238C23.3221 0.605333 25.201 0.345897 26.5719 0.15625C28.416 -0.0986354 29.9689 0.00149808 31.0244 0.136527C31.2928 1.40185 31.5536 3.34838 31.2367 5.67573C31.038 7.13677 30.7802 9.03779 29.5139 10.9828C27.0178 14.8137 22.6776 15.6345 21.7889 15.8059C20.3255 16.0881 19.0668 16.0502 18.1888 15.9607C19.2761 14.5861 20.3755 13.1402 21.4796 11.6215C22.6154 10.0604 23.6815 8.5265 24.6809 7.02905L24.6824 7.03057Z" fill="#18B653"/>
<path d="M11.3828 16.6404C11.1175 16.7314 6.78635 18.1348 3.16194 15.1945C-0.366943 12.3316 -0.00753432 7.96667 0.0258285 7.64048C0.380688 7.5191 0.873548 7.37346 1.47105 7.26574C2.12769 7.1474 6.82578 6.30536 9.98919 9.47322C12.4398 11.9295 12.4125 15.2339 12.3898 15.9546C11.4784 15.149 10.3547 14.2675 9.00801 13.4103C7.62497 12.5303 6.31472 11.8734 5.17432 11.3833C5.96745 12.2011 6.86066 13.0538 7.85851 13.914C9.07929 14.9669 10.2697 15.8696 11.3813 16.6388L11.3828 16.6404Z" fill="#18B653"/>
</g>
<defs>
<clipPath id="clip0_2004_7">
<rect width="257" height="50" fill="white"/>
</clipPath>
</defs>
</svg>
