<svg width="24" height="29" viewBox="0 0 24 29" fill="none" xmlns="http://www.w3.org/2000/svg">
<path d="M23.077 28.5137H0.760113C0.342051 28.5137 0 28.1719 0 27.7541V25.7413C0 20.6067 4.18063 16.4216 9.32659 16.4216H14.5182C19.6565 16.4216 23.8448 20.5991 23.8448 25.7413V27.7541C23.8448 28.1719 23.5027 28.5137 23.0846 28.5137H23.077ZM1.52023 26.9946H22.3169V25.7413C22.3169 21.4422 18.8128 17.9407 14.5106 17.9407H9.31899C5.01675 17.9407 1.51263 21.4422 1.51263 25.7413V26.9946H1.52023Z" fill="#0A823D"/>
<path d="M11.9185 13.8391C8.10276 13.8391 4.9939 10.7401 4.9939 6.91953C4.9939 3.09898 8.09516 0 11.9185 0C15.7419 0 18.8432 3.09898 18.8432 6.91953C18.8432 10.7401 15.7419 13.8391 11.9185 13.8391ZM11.9185 1.51911C8.93889 1.51911 6.51412 3.94208 6.51412 6.91953C6.51412 9.89698 8.93889 12.32 11.9185 12.32C14.8982 12.32 17.3229 9.89698 17.3229 6.91953C17.3229 3.94208 14.8982 1.51911 11.9185 1.51911Z" fill="#0A823D"/>
</svg>
