<svg width="37" height="38" viewBox="0 0 37 38" fill="none" xmlns="http://www.w3.org/2000/svg">
<g clip-path="url(#clip0_2019_2069)">
<path d="M8.66 20.57H2.62C1.7253 20.57 1 21.2953 1 22.19V34.78C1 35.6747 1.7253 36.4 2.62 36.4H8.66C9.5547 36.4 10.28 35.6747 10.28 34.78V22.19C10.28 21.2953 9.5547 20.57 8.66 20.57Z" stroke="#222A32" stroke-width="2" stroke-miterlimit="10"/>
<path d="M21.34 11.3H15.3C14.4053 11.3 13.68 12.0253 13.68 12.92V34.79C13.68 35.6847 14.4053 36.41 15.3 36.41H21.34C22.2347 36.41 22.96 35.6847 22.96 34.79V12.92C22.96 12.0253 22.2347 11.3 21.34 11.3Z" stroke="#222A32" stroke-width="2" stroke-miterlimit="10"/>
<path d="M34.02 1H27.98C27.0853 1 26.36 1.7253 26.36 2.62V34.78C26.36 35.6747 27.0853 36.4 27.98 36.4H34.02C34.9147 36.4 35.64 35.6747 35.64 34.78V2.62C35.64 1.7253 34.9147 1 34.02 1Z" stroke="#222A32" stroke-width="2" stroke-miterlimit="10"/>
</g>
<defs>
<clipPath id="clip0_2019_2069">
<rect width="36.64" height="37.4" fill="white"/>
</clipPath>
</defs>
</svg>
