<svg width="24" height="32" viewBox="0 0 24 32" fill="none" xmlns="http://www.w3.org/2000/svg">
<path d="M17.5966 16.7178H6.11131C5.69325 16.7178 5.3512 16.376 5.3512 15.9582C5.3512 15.5405 5.69325 15.1987 6.11131 15.1987H17.5966C18.0147 15.1987 18.3567 15.5405 18.3567 15.9582C18.3567 16.376 18.0147 16.7178 17.5966 16.7178Z" fill="#0A823D"/>
<path d="M17.5966 22.1182H6.11131C5.69325 22.1182 5.3512 21.7764 5.3512 21.3587C5.3512 20.9409 5.69325 20.5991 6.11131 20.5991H17.5966C18.0147 20.5991 18.3567 20.9409 18.3567 21.3587C18.3567 21.7764 18.0147 22.1182 17.5966 22.1182Z" fill="#0A823D"/>
<path d="M21.2223 10.1932H18.4327C17.0569 10.1932 15.9471 9.07669 15.9471 7.70949V5.37766C15.9471 4.00287 17.0645 2.89392 18.4327 2.89392H21.2223C22.5981 2.89392 23.7079 4.01047 23.7079 5.37766V7.70949C23.7079 9.08428 22.5905 10.1932 21.2223 10.1932ZM18.4403 4.40543C17.9082 4.40543 17.475 4.83838 17.475 5.37007V7.7019C17.475 8.23358 17.9082 8.66653 18.4403 8.66653H21.2299C21.762 8.66653 22.1953 8.23358 22.1953 7.7019V5.37007C22.1953 4.83838 21.762 4.40543 21.2299 4.40543H18.4403Z" fill="#0A823D"/>
<path d="M21.1388 31.7493H2.56918C1.15537 31.7493 0 30.5948 0 29.1821V5.46119C0 4.04082 1.15537 2.8863 2.56918 2.8863H5.79206V2.05839C5.79206 0.926655 6.7194 0 7.85197 0H15.856C16.9885 0 17.9159 0.926655 17.9159 2.05839V2.8863H21.1388C22.5526 2.8863 23.7079 4.04082 23.7079 5.46119V29.1821C23.7079 30.5948 22.5526 31.7493 21.1388 31.7493ZM2.56918 4.40541C1.9915 4.40541 1.52023 4.87633 1.52023 5.46119V29.1821C1.52023 29.7593 1.9915 30.2302 2.56918 30.2302H21.1388C21.7164 30.2302 22.1877 29.7593 22.1877 29.1821V5.46119C22.1877 4.87633 21.7164 4.40541 21.1388 4.40541H17.1558C16.7377 4.40541 16.3956 4.06361 16.3956 3.64586V2.05839C16.3956 1.75457 16.16 1.51911 15.856 1.51911H7.85197C7.55553 1.51911 7.31229 1.76216 7.31229 2.05839V3.64586C7.31229 4.06361 6.97024 4.40541 6.55218 4.40541H2.56918Z" fill="#0A823D"/>
</svg>
