<svg width="35" height="35" viewBox="0 0 35 35" fill="none" xmlns="http://www.w3.org/2000/svg">
<g clip-path="url(#clip0_2019_75)">
<path d="M8.00464 18.0524C10.7873 14.1953 13.3939 11.2189 15.3664 9.1143C18.5278 5.75042 20.1569 4.04206 22.6754 2.76519C26.7702 0.678175 30.8561 0.748623 33.2954 1.02161C33.5684 2.9237 33.7709 6.19952 32.5117 9.84519C31.2964 13.3676 29.3151 15.525 27.0608 17.9379C24.9561 20.1834 21.4778 23.3888 16.2646 26.1979C14.8909 25.6343 12.5045 24.4279 10.4175 21.9798C9.20225 20.5533 8.45374 19.1267 8.00464 18.0435V18.0524Z" stroke="#222A32" stroke-width="2" stroke-miterlimit="10"/>
<path d="M16.4936 33.0575C17.0924 32.8461 21.9181 31.0497 23.2918 26.2593C23.873 24.2515 23.6264 22.4727 23.3799 21.4248C22.4905 22.1909 21.469 22.9923 20.3154 23.7848C18.8888 24.7711 17.5151 25.5636 16.2646 26.1976C16.3439 28.4872 16.4144 30.7679 16.4936 33.0575Z" stroke="#222A32" stroke-width="2" stroke-miterlimit="10"/>
<path d="M1.34729 17.1188C1.70833 16.4144 4.0155 12.0994 8.84117 11.0868C10.7433 10.6905 12.39 10.9371 13.4555 11.21C12.6101 12.1699 11.7471 13.1914 10.8842 14.2745C9.85386 15.5602 8.89401 16.8194 8.0046 18.0523C5.7855 17.7441 3.56639 17.4359 1.34729 17.1188Z" stroke="#222A32" stroke-width="2" stroke-miterlimit="10"/>
<path d="M27.3161 9.33437C27.3161 10.7785 26.1449 11.9497 24.7007 11.9497C23.2565 11.9497 22.0853 10.7785 22.0853 9.33437C22.0853 7.89019 23.2565 6.71899 24.7007 6.71899C26.1449 6.71899 27.3161 7.89019 27.3161 9.33437Z" stroke="#222A32" stroke-width="2" stroke-miterlimit="10"/>
<path d="M6.20819 24.4014C5.58296 24.9738 4.84326 25.7839 4.18282 26.8758C2.94117 28.9276 2.63296 30.909 2.55371 32.0449C3.70729 31.8688 5.38923 31.4814 7.22088 30.5303C8.71789 29.7466 9.83625 28.8396 10.5936 28.1175" stroke="#222A32" stroke-width="2" stroke-miterlimit="10"/>
</g>
<defs>
<clipPath id="clip0_2019_75">
<rect width="34.3873" height="34.2904" fill="white"/>
</clipPath>
</defs>
</svg>
