<svg width="27" height="27" viewBox="0 0 27 27" fill="none" xmlns="http://www.w3.org/2000/svg">
<path d="M19.5818 14.71H24V17.71H19.5818C19.2621 17.71 19 17.3888 19 16.9972V15.4306C19 15.0389 19.2621 14.7178 19.5818 14.7178V14.71Z" stroke="#222A32" stroke-miterlimit="10"/>
<path d="M23.1301 10.71H6.86989C6.38946 10.71 6 11.0756 6 11.5267V21.8932C6 22.3443 6.38946 22.71 6.86989 22.71H23.1301C23.6105 22.71 24 22.3443 24 21.8932V11.5267C24 11.0756 23.6105 10.71 23.1301 10.71Z" stroke="#222A32" stroke-miterlimit="10"/>
<path d="M21.1899 10.71H8.81009C8.36004 10.71 8 10.3642 8 9.93204V8.36289C8 7.93071 8.36004 7.58496 8.81009 7.58496L21.1899 5.70996C21.64 5.70996 22 6.05571 22 6.48789V9.93204C22 10.3642 21.64 10.71 21.1899 10.71Z" stroke="#222A32" stroke-miterlimit="10"/>
</svg>
